<?xml version="1.0" encoding="utf-8"?>
<!-- Generator: Adobe Illustrator 27.0.0, SVG Export Plug-In . SVG Version: 6.00 Build 0)  -->
<svg version="1.1" id="Livello_1" xmlns="http://www.w3.org/2000/svg" xmlns:xlink="http://www.w3.org/1999/xlink" x="0px" y="0px"
	 viewBox="0 0 1080 1080" style="enable-background:new 0 0 1080 1080;" xml:space="preserve">
<style type="text/css">
	.st0{fill:#FFFFFF;}
</style>
<g>
	<g>
	</g>
	<g>
		<path class="st0" d="M658.55,381.15H420.44c-10.14,0-18.41,8.25-18.41,18.43v280.35c0,10.17,8.27,18.42,18.41,18.42h238.11
			c10.18,0,18.42-8.25,18.42-18.42V399.58C676.97,389.4,668.73,381.15,658.55,381.15z M460.38,662.21c0,2.99-2.45,5.42-5.45,5.42
			h-22.91c-2.98,0-5.43-2.43-5.43-5.42v-22.9c0-3.01,2.45-5.41,5.43-5.41h22.91c3,0,5.45,2.4,5.45,5.41V662.21z M460.38,612.53
			c0,3-2.45,5.44-5.45,5.44h-22.91c-2.98,0-5.43-2.45-5.43-5.44v-22.87c0-3.02,2.45-5.45,5.43-5.45h22.91c3,0,5.45,2.43,5.45,5.45
			V612.53z M460.38,562.87c0,3-2.45,5.44-5.45,5.44h-22.91c-2.98,0-5.43-2.45-5.43-5.44V540c0-3,2.45-5.46,5.43-5.46h22.91
			c3,0,5.45,2.46,5.45,5.46V562.87z M460.38,513.21c0,3.01-2.45,5.43-5.45,5.43h-22.91c-2.98,0-5.43-2.42-5.43-5.43v-22.89
			c0-2.99,2.45-5.45,5.43-5.45h22.91c3,0,5.45,2.46,5.45,5.45V513.21z M508.36,662.21c0,2.99-2.42,5.42-5.41,5.42h-22.9
			c-3,0-5.41-2.43-5.41-5.42v-22.9c0-3.01,2.4-5.41,5.41-5.41h22.9c3,0,5.41,2.4,5.41,5.41V662.21z M508.36,612.53
			c0,3-2.42,5.44-5.41,5.44h-22.9c-3,0-5.41-2.45-5.41-5.44v-22.87c0-3.02,2.4-5.45,5.41-5.45h22.9c3,0,5.41,2.43,5.41,5.45V612.53z
			 M508.36,562.87c0,3-2.42,5.44-5.41,5.44h-22.9c-3,0-5.41-2.45-5.41-5.44V540c0-3,2.4-5.46,5.41-5.46h22.9
			c3,0,5.41,2.46,5.41,5.46V562.87z M508.36,513.21c0,3.01-2.42,5.43-5.41,5.43h-22.9c-3,0-5.41-2.42-5.41-5.43v-22.89
			c0-2.99,2.4-5.45,5.41-5.45h22.9c3,0,5.41,2.46,5.41,5.45V513.21z M556.38,662.21c0,2.99-2.42,5.42-5.43,5.42h-22.88
			c-3.01,0-5.47-2.43-5.47-5.42v-22.9c0-3.01,2.46-5.41,5.47-5.41h22.88c3.01,0,5.43,2.4,5.43,5.41V662.21z M556.38,612.53
			c0,3-2.42,5.44-5.43,5.44h-22.88c-3.01,0-5.47-2.45-5.47-5.44v-22.87c0-3.02,2.46-5.45,5.47-5.45h22.88
			c3.01,0,5.43,2.43,5.43,5.45V612.53z M556.38,562.87c0,3-2.42,5.44-5.43,5.44h-22.88c-3.01,0-5.47-2.45-5.47-5.44V540
			c0-3,2.46-5.46,5.47-5.46h22.88c3.01,0,5.43,2.46,5.43,5.46V562.87z M556.38,513.21c0,3.01-2.42,5.43-5.43,5.43h-22.88
			c-3.01,0-5.47-2.42-5.47-5.43v-22.89c0-2.99,2.46-5.45,5.47-5.45h22.88c3.01,0,5.43,2.46,5.43,5.45V513.21z M604.39,662.21
			c0,2.99-2.42,5.42-5.42,5.42h-22.88c-2.99,0-5.45-2.43-5.45-5.42v-22.9c0-3.01,2.46-5.41,5.45-5.41h22.88c3,0,5.42,2.4,5.42,5.41
			V662.21z M604.39,612.53c0,3-2.42,5.44-5.42,5.44h-22.88c-2.99,0-5.45-2.45-5.45-5.44v-22.87c0-3.02,2.46-5.45,5.45-5.45h22.88
			c3,0,5.42,2.43,5.42,5.45V612.53z M604.39,562.87c0,3-2.42,5.44-5.42,5.44h-22.88c-2.99,0-5.45-2.45-5.45-5.44V540
			c0-3,2.46-5.46,5.45-5.46h22.88c3,0,5.42,2.46,5.42,5.46V562.87z M604.39,513.21c0,3.01-2.42,5.43-5.42,5.43h-22.88
			c-2.99,0-5.45-2.42-5.45-5.43v-22.89c0-2.99,2.46-5.45,5.45-5.45h22.88c3,0,5.42,2.46,5.42,5.45V513.21z M652.42,662.21
			c0,2.99-2.43,5.42-5.45,5.42h-22.89c-2.98,0-5.43-2.43-5.43-5.42v-22.9c0-3.01,2.45-5.41,5.43-5.41h22.89
			c3.02,0,5.45,2.4,5.45,5.41V662.21z M652.42,612.53c0,3-2.43,5.44-5.45,5.44h-22.89c-2.98,0-5.43-2.45-5.43-5.44v-22.87
			c0-3.02,2.45-5.45,5.43-5.45h22.89c3.02,0,5.45,2.43,5.45,5.45V612.53z M652.42,562.87c0,3-2.43,5.44-5.45,5.44h-22.89
			c-2.98,0-5.43-2.45-5.43-5.44V540c0-3,2.45-5.46,5.43-5.46h22.89c3.02,0,5.45,2.46,5.45,5.46V562.87z M652.42,513.21
			c0,3.01-2.43,5.43-5.45,5.43h-22.89c-2.98,0-5.43-2.42-5.43-5.43v-22.89c0-2.99,2.45-5.45,5.43-5.45h22.89
			c3.02,0,5.45,2.46,5.45,5.45V513.21z M653.43,455.55c0,8.37-6.81,15.2-15.22,15.2h-196.4c-8.42,0-15.22-6.83-15.22-15.2v-28.72
			c0-8.4,6.8-15.2,15.22-15.2h196.4c8.41,0,15.22,6.8,15.22,15.2V455.55z"/>
		<g>
			<path class="st0" d="M558.26,465.51h-24.97l7-6.42h12.1L558.26,465.51z M534.29,440.25l1.41-16.71l5.84,6.42l-0.75,8.68
				l-4.35,4.08L534.29,440.25z M562.03,422.27l-6.99,6.43h-12.11l-5.85-6.43H562.03z M554.81,440.68l2.96,3.2l-3.54,3.2h-13.69
				l-2.92-3.2l3.47-3.2H554.81z M560.94,447.55l-1.38,16.73l-5.91-6.45l0.76-8.7l4.38-4.02L560.94,447.55z M555.34,438.64l0.73-8.82
				l7-6.34l-1.46,16.74l-2.64,2.5L555.34,438.64z"/>
			<path class="st0" d="M596.61,422.27l-7,6.43h-12.11l-5.86-6.43H596.61z M595.51,447.55l-1.37,16.74l-5.89-6.46l0.74-8.7
				l4.34-4.02L595.51,447.55z M589.9,438.64l0.76-8.82l6.99-6.34l-1.45,16.74l-2.64,2.5L589.9,438.64z"/>
			<path class="st0" d="M603.48,440.25l1.38-16.74l5.85,6.43l-0.72,8.7l-4.39,4.08L603.48,440.25z M623.94,440.68l2.98,3.2
				l-3.53,3.2h-13.68l-2.91-3.2l3.45-3.2H623.94z M630.11,447.55l-1.4,16.74l-5.88-6.46l0.75-8.7l4.38-4.02L630.11,447.55z
				 M624.48,438.64l0.75-8.7l7.01-6.43l-1.46,16.71l-2.64,2.5L624.48,438.64z"/>
		</g>
	</g>
</g>
</svg>
