<?xml version="1.0" encoding="utf-8"?>
<!-- Generator: Adobe Illustrator 27.0.0, SVG Export Plug-In . SVG Version: 6.00 Build 0)  -->
<svg version="1.1" id="Livello_1" xmlns="http://www.w3.org/2000/svg" xmlns:xlink="http://www.w3.org/1999/xlink" x="0px" y="0px"
	 viewBox="0 0 1080 1080" style="enable-background:new 0 0 1080 1080;" xml:space="preserve">
<style type="text/css">
	.st0{fill:#FFFFFF;}
	.st1{fill:#DDDDDD;}
</style>
<g>
	<g>
		<g>
			<g>
				<path class="st0" d="M530.87,403.42c-4.93,19.58,9.19,28.35,28.12,33.11c18.95,4.78,35.54,3.74,40.46-15.85
					c4.86-19.29-8.67-30.39-27.61-35.17C552.91,380.76,535.89,383.48,530.87,403.42z"/>
				<path class="st1" d="M558.05,440.26c-11.43-2.88-19.53-6.8-24.78-12c-6.7-6.65-8.77-15.32-6.13-25.78
					c4.89-19.42,21.11-26.87,45.64-20.69c10.97,2.77,19.27,7.24,24.66,13.31c6.33,7.12,8.31,16.29,5.73,26.52
					c-3.53,14.03-12.83,21.14-27.66,21.14C570.44,442.77,564.73,441.95,558.05,440.26z M534.59,404.36
					c-1.95,7.75-0.61,13.78,4.09,18.45c4.24,4.2,11.18,7.47,21.24,10c21.52,5.42,32.09,1.7,35.8-13.06
					c1.98-7.87,0.67-14.26-4.02-19.53c-4.29-4.83-11.49-8.62-20.8-10.97c-5.05-1.27-9.7-1.91-13.82-1.91
					C544.84,387.34,537.48,392.9,534.59,404.36z"/>
			</g>
		</g>
		<g>
			<g>
				<path class="st0" d="M449.68,653.62c2.76-18.19,18.33-25.23,27.54-27.99c9.22-2.77,24.49-3.78,34.17-9.31
					c9.67-5.52,8.14-33.17,8.14-33.17h20.88h20.88c0,0-1.54,27.64,8.14,33.17c9.67,5.53,24.95,6.54,34.16,9.31
					c9.22,2.76,24.79,9.8,27.54,27.99c2.21,14.57,2.31,34.07,2.31,34.07H540.4h-93.03C447.38,687.69,447.47,668.19,449.68,653.62z"
					/>
				<path class="st1" d="M444.65,690.4c-0.72-0.72-1.12-1.7-1.12-2.73c0-0.81,0.12-19.95,2.35-34.63
					c2.26-14.89,13-25.94,30.23-31.09c3.35-1.01,7.33-1.77,11.54-2.57c7.52-1.44,16.03-3.08,21.83-6.39
					c5.24-2.99,6.78-19.12,6.21-29.62c-0.06-1.05,0.32-2.09,1.04-2.86c0.73-0.77,1.74-1.2,2.79-1.2h41.76c1.05,0,2.07,0.44,2.79,1.2
					c0.72,0.77,1.1,1.8,1.04,2.86c-0.58,10.49,0.96,26.62,6.21,29.62c5.79,3.31,14.31,4.95,21.82,6.39
					c4.21,0.81,8.19,1.57,11.53,2.58c17.25,5.16,27.98,16.21,30.24,31.09c2.23,14.68,2.35,33.83,2.36,34.63c0,1.02-0.4,2-1.12,2.73
					c-0.72,0.72-1.7,1.13-2.72,1.13H447.38C446.36,691.53,445.37,691.13,444.65,690.4z M627.32,654.19
					c-2.29-15.11-14.77-21.87-24.85-24.89c-2.97-0.9-6.76-1.62-10.77-2.39c-8.1-1.56-17.28-3.32-24.19-7.26
					c-9.29-5.31-10.28-23.73-10.19-32.66h-33.83c0.09,8.93-0.9,27.35-10.19,32.66c-6.91,3.95-16.09,5.71-24.19,7.26
					c-4.01,0.77-7.8,1.5-10.78,2.39c-10.07,3.01-22.55,9.78-24.85,24.89c-1.56,10.3-2.05,23.29-2.2,29.65h178.24
					C629.37,677.49,628.88,664.49,627.32,654.19z"/>
			</g>
		</g>
		<g>
			<g>
				<path class="st0" d="M480.94,514.17c0,0-8.81-37.64,1.44-58.57c11.05-22.56,27.63-35.46,58.03-35.46
					c30.39,0,46.98,12.9,58.03,35.46c10.25,20.93,1.43,58.57,1.43,58.57c13.82-2.77,11.23,12.35,6.91,19.18
					c-3.58,5.67-3.65,6.28-5.82,12.51c-3.11,8.98-10.24,2.77-10.24,2.77c-4.15,11.52-7.08,14.24-23.6,29.47
					c-14.39,13.28-19.44,13.13-26.71,13.13c-7.27,0-12.21,0.15-26.71-13.13c-16.58-15.16-19.46-17.95-23.6-29.47
					c0,0-7.14,6.21-10.24-2.77c-2.16-6.22-2.24-6.83-5.82-12.51C469.71,526.52,467.12,511.4,480.94,514.17z"/>
				<path class="st1" d="M511.1,580.92c-14.83-13.56-19.2-17.76-23.02-26.86c-0.92,0.3-1.94,0.49-3.02,0.49l0,0
					c-2.34,0-6.6-0.97-8.84-7.44l-0.47-1.35c-1.68-4.88-1.9-5.51-4.96-10.36c-2.82-4.46-6-13.89-2.52-20.21
					c1.6-2.91,4.38-4.69,7.92-5.11c-2.06-11.21-5.82-38.69,2.74-56.18c12.74-26.02,31.7-37.61,61.48-37.61
					c29.78,0,48.74,11.6,61.48,37.61c8.56,17.48,4.8,44.97,2.73,56.18c3.54,0.42,6.31,2.2,7.92,5.1c3.48,6.32,0.31,15.75-2.51,20.21
					c-3.07,4.86-3.28,5.49-4.97,10.37l-0.47,1.34c-2.24,6.48-6.5,7.44-8.84,7.44c-1.08,0-2.1-0.2-3.02-0.49
					c-3.9,9.24-8.36,13.34-23.01,26.85c-14.3,13.19-20.44,14.15-29.08,14.15l-0.23-3.84l-0.23,3.84c0,0-0.24,0-0.24,0
					C531.63,595.06,525.8,594.38,511.1,580.92z M540.87,587.38c6.33,0,10.51,0,23.64-12.11c16.25-14.98,18.75-17.28,22.59-27.94
					c0.42-1.18,1.41-2.07,2.63-2.4c1.22-0.32,2.52-0.02,3.49,0.78c0.56,0.47,1.76,1.17,2.53,1.17c0.75,0,1.45-1.9,1.58-2.28
					l0.46-1.34c1.85-5.34,2.3-6.52,5.73-11.96c2.5-3.96,3.61-9.98,2.27-12.4c-0.22-0.4-0.67-1.22-2.85-1.22
					c-0.69,0-1.47,0.09-2.33,0.26c-1.28,0.24-2.6-0.15-3.52-1.1c-0.91-0.94-1.28-2.27-0.98-3.55c0.09-0.36,8.39-36.52-1.14-56
					c-11.43-23.34-27.75-33.31-54.57-33.31c-26.82,0-43.14,9.96-54.57,33.31c-9.52,19.45-1.23,55.64-1.15,56.01
					c0.3,1.27-0.07,2.61-0.98,3.55c-0.91,0.94-2.23,1.34-3.51,1.1c-0.86-0.17-1.65-0.26-2.33-0.26c-2.18,0-2.63,0.83-2.85,1.22
					c-1.33,2.42-0.23,8.44,2.28,12.4c3.43,5.44,3.89,6.62,5.73,11.96l0.47,1.34c0.13,0.38,0.83,2.27,1.58,2.27
					c0.78,0,1.97-0.7,2.51-1.15c0.95-0.84,2.27-1.14,3.49-0.82c1.23,0.32,2.22,1.22,2.65,2.42c3.76,10.45,6.01,12.78,22.58,27.94
					c13.23,12.12,17.38,12.12,23.64,12.12h0.47H540.87z"/>
			</g>
		</g>
		<g>
			<g>
				<path class="st0" d="M500.82,420.14c33.84-17.68,62.3,0,62.3,0c70.14,7.75,45.59,96.2,45.59,96.2h-0.04
					c-1.51-2.03-4.26-3.08-8.8-2.17c0.97-6.44-6.95-14.29-19.38-23.5c-12.43-9.21-17.37-22.57-17.37-22.57s-12.44,23.49-43.59,29.7
					c-31.16,6.22-37.73,10.61-38.59,16.36c-4.54-0.91-7.29,0.13-8.8,2.17h-0.04C472.1,516.34,453.26,444.98,500.82,420.14z"/>
				<path class="st1" d="M468.38,517.32c-0.8-3.03-19.05-74.62,30.66-100.58c10.53-5.5,21.62-8.29,32.97-8.29
					c16.92,0,29.17,6.2,32.34,7.97c18.35,2.21,32.15,9.97,41.02,23.07c20.09,29.68,7.58,75.92,7.04,77.88
					c-0.46,1.66-2.01,2.81-3.74,2.81c-1.22,0-2.36-0.58-3.08-1.55c-0.19-0.26-0.7-0.95-2.66-0.95c-0.68,0-1.46,0.09-2.3,0.26
					c-0.25,0.05-0.5,0.08-0.75,0.08c-0.02,0-0.05,0-0.08,0c-2.12,0-3.84-1.72-3.84-3.84c0-0.38,0.05-0.75,0.16-1.1
					c0.02-4-6-10.49-17.91-19.31c-7.74-5.73-12.75-12.9-15.62-17.97c-6.03,7.84-19.33,21.2-42.3,25.79
					c-23.93,4.78-34.89,8.84-35.54,13.16c-0.16,1.04-0.73,1.97-1.59,2.57c-0.86,0.6-1.93,0.83-2.96,0.62
					c-0.85-0.17-1.62-0.26-2.3-0.26c-1.95,0-2.46,0.69-2.66,0.95c-0.72,0.98-1.87,1.55-3.08,1.55h-0.04
					C470.35,520.18,468.83,519,468.38,517.32z M502.6,423.55c-37.2,19.43-30.91,70.58-27.86,86.81c1.04-0.25,2.25-0.41,3.54-0.35
					c3.44-6.64,14.34-10.74,40.5-15.96c28.85-5.76,40.83-27.52,40.94-27.73c0.71-1.34,2.08-2.09,3.65-2.03
					c1.51,0.1,2.82,1.08,3.35,2.49c0.04,0.12,4.75,12.45,16.05,20.82c12.65,9.37,19.08,16.25,20.64,22.42
					c1.01,0.03,1.91,0.16,2.73,0.36c2.54-12.36,7.38-45.16-7.14-66.59c-7.68-11.34-19.89-18-36.3-19.82
					c-0.57-0.06-1.12-0.26-1.6-0.55c-0.12-0.07-12.05-7.28-29.09-7.28C521.92,416.12,512.02,418.62,502.6,423.55z"/>
			</g>
		</g>
		<g>
			<g>
				<path class="st0" d="M569.42,616.32c9.67,5.53,24.95,6.54,34.16,9.31c9.22,2.76,24.79,9.8,27.54,27.99
					c2.21,14.57,2.31,34.07,2.31,34.07H540.4h-93.03c0,0,0.09-19.5,2.3-34.07c2.76-18.19,18.33-25.23,27.54-27.99
					c9.22-2.77,24.49-3.78,34.17-9.31c0.42-0.24,0.8-0.54,1.18-0.84l28.07,29.76l27.6-29.76C568.61,615.78,569,616.08,569.42,616.32
					z"/>
				<path class="st1" d="M444.65,690.4c-0.72-0.72-1.12-1.7-1.12-2.73c0-0.81,0.12-19.95,2.35-34.63
					c2.26-14.89,13-25.94,30.23-31.09c3.35-1.01,7.33-1.77,11.54-2.57c7.52-1.44,16.03-3.08,21.85-6.4c0.23-0.13,0.42-0.3,0.63-0.47
					c1.56-1.28,3.85-1.13,5.23,0.33l25.25,26.77l24.81-26.74c1.38-1.49,3.68-1.65,5.25-0.36c0.2,0.16,0.4,0.34,0.65,0.48
					c5.79,3.31,14.31,4.95,21.82,6.39c4.21,0.81,8.19,1.57,11.53,2.58c17.25,5.16,27.98,16.21,30.24,31.09
					c2.23,14.68,2.35,33.83,2.36,34.63c0,1.02-0.4,2-1.12,2.73c-0.72,0.72-1.7,1.13-2.72,1.13H447.38
					C446.36,691.53,445.37,691.13,444.65,690.4z M627.32,654.19c-2.29-15.11-14.77-21.87-24.85-24.89
					c-2.97-0.9-6.76-1.62-10.77-2.39c-7.58-1.46-16.09-3.09-22.8-6.51l-25.45,27.43c-0.72,0.78-1.74,1.23-2.8,1.23
					c0,0-0.01,0-0.02,0c-1.06,0-2.07-0.43-2.8-1.2l-25.91-27.47c-6.72,3.44-15.25,5.07-22.83,6.53c-4.01,0.77-7.8,1.5-10.78,2.39
					c-10.07,3.01-22.55,9.78-24.85,24.89c-1.56,10.3-2.05,23.29-2.2,29.65h178.24C629.37,677.49,628.88,664.49,627.32,654.19z"/>
			</g>
		</g>
		<g>
			<g>
				<path class="st0" d="M511.86,616.32c0.42-0.24,0.81-0.54,1.19-0.84c0,0,13.73,9.34,27.59,9.34c14.15,0,27.59-9.34,27.59-9.34
					c0.38,0.31,0.76,0.61,1.18,0.84c4.37,2.5,9.88,4.05,15.46,5.28v0.02l-44.23,48.54l-44.24-48.54v-0.02
					C501.99,620.37,507.5,618.82,511.86,616.32z"/>
				<path class="st1" d="M537.8,672.75l-44.24-48.54c-0.65-0.71-1-1.65-1-2.61c0-1.8,1.25-3.36,3.01-3.75
					c4.47-0.99,10.13-2.43,14.4-4.88c0.23-0.13,0.43-0.3,0.63-0.47c1.32-1.08,3.18-1.16,4.6-0.21c0.13,0.09,12.9,8.67,25.43,8.67
					c12.74,0,25.28-8.57,25.41-8.65c1.41-0.97,3.3-0.9,4.62,0.19c0.2,0.16,0.4,0.34,0.65,0.48c4.25,2.44,9.92,3.88,14.38,4.87
					c1.76,0.39,3.01,1.97,3.01,3.77c0,0.96-0.36,1.88-1,2.59l-44.23,48.54c-0.73,0.8-1.76,1.25-2.84,1.25l0,0
					C539.56,674,538.53,673.55,537.8,672.75z M568.21,620.04c-4.61,2.77-15.73,8.61-27.56,8.61c-11.63,0-22.9-5.87-27.55-8.62
					c-2.98,1.61-6.31,2.81-9.53,3.74l37.08,40.69l37.08-40.69C574.5,622.84,571.17,621.64,568.21,620.04z"/>
			</g>
		</g>
	</g>
	<g>
		<path class="st1" d="M524.84,572.28c2.12,0,3.84-1.72,3.84-3.84c0-2.12-1.72-3.84-3.84-3.84c-23.52,0-40.04-5.04-47.8-14.59
			c-6.37-7.83-4.75-16.03-4.73-16.1c0.44-2.08-0.9-4.12-2.97-4.55c-2.1-0.46-4.11,0.9-4.55,2.97c-0.1,0.48-2.36,11.88,6.29,22.53
			C480.47,566.42,498.56,572.28,524.84,572.28z"/>
	</g>
	<g>
		<g>
			<path class="st0" d="M456.03,524.92c0-14.51,6-26.27,13.43-26.34v-0.01h4.83v1.62c5.46,3.69,9.82,13.35,9.82,24.73
				c0,11.37-4.36,21.03-9.82,24.72v1.62h-4.83v-0.01C462.03,551.18,456.03,539.42,456.03,524.92z"/>
			<path class="st1" d="M469.41,555.11c-9.82-0.11-17.23-13.08-17.23-30.18c0-17.1,7.41-30.08,17.27-30.19h4.83
				c2.03,0,3.7,1.58,3.84,3.58c5.95,5.24,9.83,15.58,9.83,26.61c0,11.03-3.88,21.37-9.83,26.6c-0.13,2-1.8,3.59-3.84,3.59h-4.83
				C469.44,555.11,469.43,555.11,469.41,555.11z M472.14,546.46c4.04-2.73,8.13-11.01,8.13-21.54c0-10.54-4.09-18.81-8.13-21.55
				c-0.39-0.26-0.72-0.59-0.98-0.96l-1.66,0c-4.54,0.04-9.62,9.68-9.62,22.5c0,12.8,5.07,22.43,9.61,22.51h1.67
				C471.41,547.05,471.75,546.73,472.14,546.46z"/>
		</g>
		<g>
			<path class="st0" d="M469.1,545.72c0,3.44,2.24,6.23,5.01,6.23h5.01c2.76,0,5-2.79,5-6.23v-41.59c0-3.44-2.24-6.23-5-6.23h-5.01
				c-2.76,0-5.01,2.78-5.01,6.23V545.72z"/>
			<path class="st1" d="M465.26,545.72v-41.59c0-5.55,3.97-10.07,8.85-10.07h5.01c4.87,0,8.84,4.52,8.84,10.07v41.59
				c0,5.55-3.97,10.07-8.84,10.07h-5.01C469.23,555.79,465.26,551.27,465.26,545.72z M474.11,501.74c-0.36,0-1.16,0.9-1.16,2.38
				v41.59c0,1.49,0.81,2.39,1.16,2.39h5.01c0.35,0,1.16-0.9,1.16-2.39v-41.59c0-1.48-0.8-2.38-1.16-2.38H474.11z"/>
		</g>
		<g>
			<path class="st0" d="M624.77,524.92c0-14.51-6-26.27-13.42-26.34v-0.01h-4.83v1.62c-5.46,3.69-9.83,13.35-9.83,24.73
				c0,11.37,4.37,21.03,9.83,24.72v1.62h4.83v-0.01C618.77,551.18,624.77,539.42,624.77,524.92z"/>
			<path class="st1" d="M602.68,551.53c-5.95-5.24-9.84-15.58-9.84-26.6c0-11.03,3.89-21.37,9.84-26.61
				c0.06-0.92,0.46-1.8,1.12-2.46c0.72-0.72,1.7-1.12,2.72-1.12c0,0,0,0,0.01,0l4.86,0.01c9.82,0.1,17.22,13.08,17.22,30.18
				c0,17.1-7.4,30.08-17.26,30.19h-4.83C604.48,555.11,602.82,553.53,602.68,551.53z M609.66,502.42c-0.27,0.37-0.6,0.7-0.99,0.96
				c-4.05,2.74-8.14,11.01-8.14,21.55c0,10.53,4.09,18.81,8.14,21.54c0.39,0.26,0.72,0.59,0.98,0.96l1.66,0
				c4.54-0.05,9.62-9.68,9.62-22.5c0-12.82-5.08-22.46-9.58-22.51H609.66z"/>
		</g>
		<g>
			<path class="st0" d="M611.7,545.72c0,3.44-2.24,6.23-5,6.23h-5.01c-2.76,0-5.01-2.79-5.01-6.23v-41.59
				c0-3.44,2.24-6.23,5.01-6.23h5.01c2.76,0,5,2.78,5,6.23V545.72z"/>
			<path class="st1" d="M592.85,545.72v-41.59c0-5.55,3.97-10.07,8.85-10.07h5.01c4.87,0,8.84,4.52,8.84,10.07v41.59
				c0,5.55-3.97,10.07-8.84,10.07h-5.01C596.82,555.79,592.85,551.27,592.85,545.72z M601.69,501.74c-0.36,0-1.16,0.9-1.16,2.38
				v41.59c0,1.49,0.81,2.39,1.16,2.39h5.01c0.35,0,1.16-0.9,1.16-2.39v-41.59c0-1.48-0.8-2.38-1.16-2.38H601.69z"/>
		</g>
		<g>
			<path class="st1" d="M469.17,504.5c2.12,0,3.84-1.72,3.84-3.84c0-37.16,30.23-67.39,67.39-67.39c37.16,0,67.39,30.23,67.39,67.39
				c0,2.12,1.72,3.84,3.84,3.84s3.84-1.72,3.84-3.84c0-41.4-33.68-75.08-75.08-75.08c-41.4,0-75.08,33.68-75.08,75.08
				C465.33,502.78,467.05,504.5,469.17,504.5z"/>
		</g>
	</g>
	<g>
		<path class="st0" d="M517.64,568.52c0,2.81,2.5,5.08,5.57,5.08h19.02c3.07,0,5.57-2.27,5.57-5.08v-0.15c0-2.81-2.5-5.08-5.57-5.08
			H523.2c-3.07,0-5.57,2.27-5.57,5.08V568.52z"/>
		<path class="st1" d="M513.79,568.36c0-4.92,4.22-8.92,9.41-8.92h19.02c5.19,0,9.41,4,9.41,9.07c0,4.92-4.22,8.92-9.41,8.92H523.2
			C518.01,577.44,513.79,573.44,513.79,568.36z M523.2,567.13c-1.02,0-1.73,0.65-1.73,1.39c0,0.59,0.71,1.24,1.73,1.24h19.02
			c1.02,0,1.73-0.65,1.73-1.39c0-0.59-0.71-1.23-1.73-1.23H523.2z"/>
	</g>
</g>
</svg>
