<?xml version="1.0" encoding="UTF-8"?>
<svg id="Object" xmlns="http://www.w3.org/2000/svg" viewBox="0 0 500 500">
  <defs>
    <style>
      .cls-1, .cls-2 {
        fill: #3d3d3d;
      }

      .cls-3 {
        letter-spacing: -.03em;
      }

      .cls-2 {
        font-family: Outfit-Medium, Outfit;
        font-size: 18.89px;
        font-weight: 500;
      }

      .cls-4 {
        fill: #f19532;
      }
    </style>
  </defs>
  <g id="Logotype">
    <g>
      <path class="cls-4" d="M153.59,262.58l21.75-52.87c.33-.8,1.1-1.32,1.96-1.32h3.91c.84,0,1.59,.51,1.9,1.28l21.44,52.48c.98,2.4-.78,5.03-3.38,5.03h-3.36c-.98,0-1.86-.6-2.22-1.51l-18.21-46.11h3.53l-18.53,46.48c-.27,.68-.94,1.13-1.67,1.13h-4.06c-2.37,0-3.98-2.4-3.08-4.59Zm10.04-6.74v-8.4h31.16v8.4h-31.16Z"/>
      <path class="cls-4" d="M224.76,268.02c-2.24,0-4.4-.29-6.47-.88-2.07-.59-3.98-1.43-5.71-2.52-.59-.37-1.15-.77-1.69-1.2-1.67-1.32-1.84-3.79-.34-5.3l1.01-1.01c1.25-1.25,3.21-1.3,4.62-.23,.8,.61,1.66,1.12,2.57,1.52,1.82,.81,3.88,1.22,6.17,1.22,2.07,0,3.64-.31,4.7-.92,1.06-.61,1.6-1.51,1.6-2.69s-.5-2.18-1.51-2.86c-1.01-.67-2.31-1.25-3.91-1.72-1.6-.48-3.28-.97-5.04-1.47-1.76-.5-3.44-1.19-5.04-2.06-1.6-.87-2.9-2.06-3.9-3.57-1.01-1.51-1.51-3.47-1.51-5.88,0-2.57,.6-4.79,1.81-6.63,1.2-1.85,2.91-3.28,5.12-4.28,2.21-1.01,4.86-1.51,7.94-1.51,3.25,0,6.12,.57,8.61,1.72,1.33,.61,2.54,1.38,3.63,2.32,1.58,1.35,1.72,3.75,.24,5.23l-1.05,1.05c-1.24,1.24-3.22,1.38-4.61,.32-.59-.45-1.21-.83-1.86-1.15-1.51-.73-3.25-1.09-5.21-1.09-1.85,0-3.28,.28-4.28,.84-1.01,.56-1.51,1.37-1.51,2.44,0,1.12,.5,1.99,1.51,2.6,1.01,.62,2.31,1.15,3.9,1.6,1.6,.45,3.28,.94,5.04,1.47,1.76,.53,3.44,1.26,5.04,2.18,1.6,.92,2.9,2.16,3.91,3.7,1.01,1.54,1.51,3.54,1.51,6,0,3.92-1.37,7.03-4.11,9.32-2.74,2.3-6.47,3.44-11.17,3.44Z"/>
      <path class="cls-4" d="M258.69,268.02c-2.24,0-4.4-.29-6.47-.88-2.07-.59-3.98-1.43-5.71-2.52-.4-.25-.79-.52-1.17-.79-2-1.47-2.15-4.42-.39-6.17l.14-.14c1.41-1.41,3.64-1.62,5.26-.46,.73,.53,1.51,.98,2.33,1.34,1.82,.81,3.88,1.22,6.17,1.22,2.07,0,3.64-.31,4.7-.92,1.06-.61,1.6-1.51,1.6-2.69s-.5-2.18-1.51-2.86c-1.01-.67-2.31-1.25-3.91-1.72-1.6-.48-3.28-.97-5.04-1.47-1.76-.5-3.44-1.19-5.04-2.06-1.6-.87-2.9-2.06-3.9-3.57-1.01-1.51-1.51-3.47-1.51-5.88,0-2.57,.6-4.79,1.81-6.63,1.2-1.85,2.91-3.28,5.12-4.28,2.21-1.01,4.86-1.51,7.94-1.51,3.25,0,6.12,.57,8.61,1.72,1.13,.52,2.17,1.16,3.13,1.91,1.91,1.5,2,4.37,.29,6.09l-.24,.24c-1.45,1.45-3.7,1.55-5.38,.38-.47-.32-.95-.61-1.46-.85-1.51-.73-3.25-1.09-5.21-1.09-1.85,0-3.28,.28-4.28,.84-1.01,.56-1.51,1.37-1.51,2.44,0,1.12,.5,1.99,1.51,2.6,1.01,.62,2.31,1.15,3.9,1.6,1.6,.45,3.28,.94,5.04,1.47,1.76,.53,3.44,1.26,5.04,2.18,1.6,.92,2.9,2.16,3.91,3.7,1.01,1.54,1.51,3.54,1.51,6,0,3.92-1.37,7.03-4.12,9.32-2.74,2.3-6.47,3.44-11.17,3.44Z"/>
      <path class="cls-4" d="M297.91,268.02c-3.92,0-7.47-.94-10.67-2.81-3.19-1.87-5.72-4.41-7.6-7.6-1.88-3.19-2.81-6.75-2.81-10.67s.94-7.44,2.81-10.58c1.87-3.14,4.41-5.64,7.6-7.52,3.19-1.88,6.75-2.81,10.67-2.81s7.56,.92,10.75,2.77c3.19,1.85,5.72,4.35,7.6,7.52,1.88,3.16,2.81,6.71,2.81,10.62s-.94,7.47-2.81,10.67c-1.88,3.19-4.41,5.73-7.6,7.6-3.19,1.88-6.77,2.81-10.75,2.81Zm0-8.9c2.3,0,4.33-.52,6.09-1.55,1.76-1.04,3.13-2.48,4.11-4.33,.98-1.85,1.47-3.95,1.47-6.3s-.5-4.42-1.51-6.21c-1.01-1.79-2.38-3.2-4.12-4.24-1.74-1.04-3.75-1.55-6.05-1.55s-4.24,.52-6,1.55c-1.76,1.04-3.14,2.45-4.11,4.24-.98,1.79-1.47,3.86-1.47,6.21s.49,4.45,1.47,6.3c.98,1.85,2.35,3.29,4.11,4.33,1.76,1.04,3.76,1.55,6,1.55Z"/>
      <path class="cls-1" d="M311.27,216.69v-5.67c0-1.73,1.4-3.13,3.13-3.13h43.24c2.17,0,3.93,1.76,3.93,3.93v4.88c0,1.49-1.21,2.69-2.69,2.69h-44.9c-1.49,0-2.71-1.21-2.71-2.71Zm18.56,45.62v-53.57h13.19v54.67c0,2.09-1.69,3.78-3.78,3.78h-4.53c-2.69,0-4.87-2.18-4.87-4.87Z"/>
      <path class="cls-1" d="M374.06,268.02c-3.75,0-7.1-.92-10.04-2.77-2.94-1.85-5.26-4.37-6.97-7.56-1.71-3.19-2.56-6.83-2.56-10.92s.85-7.73,2.56-10.92c1.71-3.19,4.03-5.71,6.97-7.56,2.94-1.85,6.28-2.77,10.04-2.77,2.74,0,5.22,.53,7.43,1.6,2.21,1.06,4.02,2.53,5.42,4.41,1.4,1.88,2.18,4.02,2.35,6.42v17.64c-.17,2.41-.94,4.55-2.31,6.42-1.37,1.88-3.18,3.35-5.42,4.41-2.24,1.06-4.73,1.6-7.47,1.6Zm2.6-11.59c2.74,0,4.95-.91,6.63-2.73,1.68-1.82,2.52-4.13,2.52-6.93,0-1.9-.38-3.58-1.13-5.04-.76-1.45-1.82-2.59-3.19-3.4-1.37-.81-2.95-1.22-4.74-1.22s-3.37,.41-4.74,1.22c-1.37,.81-2.46,1.95-3.28,3.4-.81,1.46-1.22,3.14-1.22,5.04s.39,3.5,1.18,4.95c.78,1.46,1.87,2.6,3.28,3.44,1.4,.84,2.97,1.26,4.7,1.26Zm8.65,7.68v-7.93l1.93-9.91-1.93-9.91v-6.28c0-2.05,1.66-3.71,3.71-3.71h4.59c2.37,0,4.3,1.92,4.3,4.3v34.45c0,1.14-.93,2.07-2.07,2.07h-7.46c-1.69,0-3.07-1.37-3.07-3.07Z"/>
      <path class="cls-1" d="M405.01,264.13l14.57-20.72,7.31,8.23-8.3,12.9c-1.06,1.64-2.87,2.63-4.82,2.63h-7.17c-1.56,0-2.48-1.76-1.58-3.04Zm25.66,.47l-8.23-13.3-2.77-1.76-14.35-20.74c-.71-1.03,.02-2.44,1.28-2.44h8.93c1.95,0,3.75,1.01,4.77,2.67l7.51,12.2,2.69,1.68,15.17,22.14c.62,.9-.03,2.13-1.12,2.13h-9.26c-1.88,0-3.62-.97-4.61-2.57Zm-.26-15.15l-7.31-8.23,8.26-13.28c.61-.98,1.69-1.58,2.84-1.58h9.45c1.11,0,1.77,1.25,1.14,2.17l-14.38,20.93Z"/>
    </g>
    <text class="cls-2" transform="translate(152.08 288.06)"><tspan x="0" y="0">il gestionale per la tua</tspan><tspan class="cls-3" x="183.31" y="0"> </tspan><tspan x="186.56" y="0">Associazione</tspan></text>
  </g>
  <g id="Logogram">
    <path class="cls-4" d="M105.82,214.56l-16.68,67.04c-1.3,6.08-6.67,10.42-12.88,10.42h-18.17c-3.81,0-6.65-3.51-5.85-7.24l16.68-67.04c1.3-6.08,6.67-10.42,12.88-10.42h18.17c3.81,0,6.65,3.51,5.85,7.24Z"/>
    <path class="cls-1" d="M152.12,211.14l-6.89,32.24c-2.15,10.08-11.06,17.29-21.37,17.29h-14.65c-2.01,0-3.5-1.85-3.08-3.81l6.89-32.24c2.15-10.08,11.06-17.29,21.37-17.29h14.65c2.01,0,3.5,1.85,3.08,3.81Z"/>
  </g>
</svg>