<?xml version="1.0" encoding="utf-8"?>
<!-- Generator: Adobe Illustrator 27.0.0, SVG Export Plug-In . SVG Version: 6.00 Build 0)  -->
<svg version="1.1" id="Livello_1" xmlns="http://www.w3.org/2000/svg" xmlns:xlink="http://www.w3.org/1999/xlink" x="0px" y="0px"
	 viewBox="0 0 1080 1080" style="enable-background:new 0 0 1080 1080;" xml:space="preserve">
<style type="text/css">
	.st0{fill:#2B353B;}
</style>
<g>
	<g>
		<path class="st0" d="M577.9,459.9c21.7,0,39.4-17.7,39.4-39.4s-17.7-39.4-39.4-39.4c-21.7,0-39.3,17.7-39.3,39.4
			S556.2,459.9,577.9,459.9z"/>
		<path class="st0" d="M668.2,584.6c-6.3-13.1-14.2-21.7-22.8-25c9.7-3.4,16.7-12.6,16.7-23.5c0-13.7-11.2-24.9-24.9-24.9
			c-1.7,0-3.3,0.2-5,0.5v-33c0-9.7-7.9-17.5-17.5-17.5h-73.3c-9.7,0-17.5,7.9-17.5,17.5v23.9c-8.4-9.7-17.7-15.4-27.3-16.7
			c18.1-2.2,32.2-17.7,32.2-36.4c0-20.2-16.4-36.7-36.7-36.7c-20.2,0-36.7,16.4-36.7,36.7c0,18.7,14,34.1,32.1,36.3
			c-11,1.5-21.4,8.6-30.6,20.7c-4.3-9.4-13.8-15.7-24.3-15.7c-14.7,0-26.6,11.9-26.6,26.6c0,11.5,7.3,21.3,17.6,25h-14.5
			c-6.9,0-12.5,5.6-12.5,12.5v76c0,6.9,5.6,12.5,12.5,12.5h1.5V685c0,6.5,5.3,11.8,11.8,11.8c4.3,0,8.2-2.4,10.3-6.1
			c2,3.7,5.9,6.1,10.3,6.1c6.5,0,11.8-5.3,11.8-11.8v-41.5h1.7c1.1,0,2.2-0.2,3.3-0.4v37.3c0,9,7.3,16.3,16.3,16.3
			c7.8,0,14.5-5.6,16-13.1c1.5,7.5,8.2,13.1,16,13.1c9,0,16.3-7.3,16.3-16.3v-55.7h21.1v55.7c0,9,7.3,16.3,16.3,16.3
			c7.7,0,14.3-5.4,16-12.9c1.6,7.4,8.3,12.9,15.9,12.9c9,0,16.3-7.3,16.3-16.3v-30.1h4.9V685c0,6.5,5.3,11.8,11.8,11.8
			c4.4,0,8.3-2.4,10.3-6.1c2,3.7,5.9,6.1,10.3,6.1c6.5,0,11.8-5.3,11.8-11.8v-34.6h19.5c1,0,1.8-0.8,1.8-1.8v-1.8
			C680.6,623.4,676.2,601.3,668.2,584.6z"/>
	</g>
	<path class="st0" d="M595.6,646.8c0-41.9,14.2-76.9,33.1-85.1v-4c-8.6-3.4-14.7-11.7-14.7-21.5c0-9.8,6.1-18.1,14.7-21.5v-35.9
		c0-7.7-6.3-14-14-14h-73.3c-7.7,0-14,6.3-14,14v31.2c17,24.1,28.3,65,28.3,111.3c0,1-0.8,1.8-1.8,1.8h-4.8v57.4
		c0,7.1,5.7,12.8,12.8,12.8c7,0,12.7-5.6,12.8-12.6h0v-66.4c0-1.7,1.4-3.1,3.1-3.1c1.7,0,3.1,1.4,3.1,3.1v66.4h0
		c0.1,7,5.8,12.6,12.8,12.6c7.1,0,12.8-5.7,12.8-12.8v-31.8h-9.3C596.4,648.6,595.6,647.8,595.6,646.8z"/>
	<path class="st0" d="M577.9,456.4c19.8,0,35.9-16,35.9-35.8s-16.1-35.8-35.9-35.8c-19.8,0-35.8,16.1-35.8,35.8
		S558.1,456.4,577.9,456.4z"/>
	<path class="st0" d="M492.2,482.7c18.3,0,33.2-14.8,33.2-33.2s-14.8-33.2-33.2-33.2c-18.3,0-33.2,14.8-33.2,33.2
		S473.8,482.7,492.2,482.7z"/>
	<path class="st0" d="M492.2,489.1c-13,0-25.1,8.6-35.1,23.3c0.3,1.6,0.5,3.3,0.5,5c0,9.9-5.8,18.4-14.1,22.4
		c-0.5,1.4-1,2.9-1.5,4.4h14.6c5.9,0,10.8,4.8,10.8,10.8v76c0,3.4-1.6,6.4-4,8.4v41.1c0,7.1,5.7,12.8,12.8,12.8
		c7,0,12.7-5.6,12.8-12.6h0.1v-52.1c0-1.7,1.4-3.1,3.1-3.1c1.7,0,3.1,1.4,3.1,3.1v52.1h0.1c0.1,7,5.8,12.6,12.8,12.6
		c7.1,0,12.8-5.7,12.8-12.8v-59.2h33C554,548.3,526.3,489.1,492.2,489.1z"/>
	<g>
		<path class="st0" d="M637.2,557.5c11.8,0,21.4-9.6,21.4-21.4c0-11.8-9.6-21.4-21.4-21.4c-11.8,0-21.4,9.6-21.4,21.4
			C615.9,548,625.4,557.5,637.2,557.5z"/>
		<path class="st0" d="M677.1,646.8c0-47.1-17.8-85.2-39.8-85.2c-22,0-39.8,38.1-39.8,85.2h21.2V685c0,4.6,3.7,8.3,8.3,8.3
			c4.5,0,8.2-3.6,8.3-8.1h0.1v-33.6c0-1.1,0.9-2,2-2c1.1,0,2,0.9,2,2v33.6h0c0.1,4.5,3.8,8.1,8.3,8.1c4.6,0,8.3-3.7,8.3-8.3v-38.1
			H677.1z"/>
	</g>
	<g>
		<path class="st0" d="M456.5,546h-47.3c-5,0-9,4-9,9v76c0,5,4,9,9,9h5v45c0,4.6,3.7,8.3,8.3,8.3c4.5,0,8.2-3.6,8.3-8.1h0v-42.8
			c0-1.1,0.9-2,2-2c1.1,0,2,0.9,2,2v42.8h0c0.1,4.5,3.8,8.1,8.3,8.1c4.6,0,8.3-3.7,8.3-8.3v-45h5.2c5,0,9-4,9-9v-76
			C465.5,550,461.5,546,456.5,546z"/>
		<path class="st0" d="M432.8,540.6c12.8,0,23.1-10.3,23.1-23.1c0-12.8-10.3-23.1-23.1-23.1c-12.8,0-23.1,10.3-23.1,23.1
			C409.7,530.2,420,540.6,432.8,540.6z"/>
	</g>
	<g>
		<g>
			<g>
				<g>
					<path class="st0" d="M597.4,403.5c-0.2,0-0.5-0.1-0.6-0.3c-0.2-0.1-0.2-0.4-0.2-0.6c0-0.2,0.1-0.5,0.3-0.6
						c0.3-0.3,0.9-0.3,1.2,0c0.2,0.2,0.3,0.4,0.3,0.6c0,0.2-0.1,0.5-0.3,0.6C597.8,403.4,597.6,403.5,597.4,403.5z"/>
				</g>
				<g>
					<path class="st0" d="M596.5,437.1c0-0.5,0.4-0.9,0.9-0.9l0,0c0.5,0,0.9,0.4,0.9,0.9l0,0c0,0.5-0.4,0.9-0.9,0.9l0,0
						C596.9,438,596.5,437.6,596.5,437.1z M596.5,428.5c0-0.5,0.4-0.9,0.9-0.9l0,0c0.5,0,0.9,0.4,0.9,0.9l0,0c0,0.5-0.4,0.9-0.9,0.9
						l0,0C596.9,429.3,596.5,429,596.5,428.5z M596.5,419.9c0-0.5,0.4-0.9,0.9-0.9l0,0c0.5,0,0.9,0.4,0.9,0.9l0,0
						c0,0.5-0.4,0.9-0.9,0.9l0,0C596.9,420.7,596.5,420.3,596.5,419.9z M596.5,411.2c0-0.5,0.4-0.9,0.9-0.9l0,0
						c0.5,0,0.9,0.4,0.9,0.9l0,0c0,0.5-0.4,0.9-0.9,0.9l0,0C596.9,412.1,596.5,411.7,596.5,411.2z"/>
				</g>
				<g>
					<path class="st0" d="M597.4,446.6c-0.2,0-0.5-0.1-0.6-0.2c-0.2-0.2-0.3-0.4-0.3-0.6c0-0.2,0.1-0.5,0.3-0.6
						c0.3-0.3,0.9-0.3,1.2,0c0.2,0.2,0.2,0.4,0.2,0.6c0,0.2-0.1,0.5-0.2,0.6C597.8,446.5,597.6,446.6,597.4,446.6z"/>
				</g>
			</g>
			<g>
				<g>
					<path class="st0" d="M603,407.3c-0.2,0-0.5-0.1-0.6-0.3c-0.2-0.2-0.2-0.4-0.2-0.6c0-0.2,0.1-0.5,0.2-0.6c0.3-0.4,0.9-0.3,1.2,0
						c0.2,0.2,0.3,0.4,0.3,0.6c0,0.2-0.1,0.4-0.3,0.6C603.5,407.2,603.3,407.3,603,407.3z"/>
				</g>
				<g>
					<path class="st0" d="M602.2,431.3c0-0.5,0.4-0.9,0.9-0.9l0,0c0.5,0,0.9,0.4,0.9,0.9l0,0c0,0.5-0.4,0.9-0.9,0.9l0,0
						C602.6,432.2,602.2,431.8,602.2,431.3z M602.2,423c0-0.5,0.4-0.9,0.9-0.9l0,0c0.5,0,0.9,0.4,0.9,0.9l0,0c0,0.5-0.4,0.9-0.9,0.9
						l0,0C602.6,423.9,602.2,423.5,602.2,423z M602.2,414.7c0-0.5,0.4-0.9,0.9-0.9l0,0c0.5,0,0.9,0.4,0.9,0.9l0,0
						c0,0.5-0.4,0.9-0.9,0.9l0,0C602.6,415.6,602.2,415.2,602.2,414.7z"/>
				</g>
				<g>
					<path class="st0" d="M603,440.5c-0.2,0-0.5-0.1-0.6-0.3c-0.2-0.2-0.2-0.4-0.2-0.6s0.1-0.5,0.2-0.6c0.3-0.3,0.9-0.3,1.2,0
						c0.2,0.2,0.3,0.4,0.3,0.6s-0.1,0.5-0.3,0.6C603.5,440.4,603.3,440.5,603,440.5z"/>
				</g>
			</g>
			<g>
				<g>
					<path class="st0" d="M608.7,412.9c-0.2,0-0.5-0.1-0.6-0.3c-0.2-0.2-0.3-0.4-0.3-0.6c0-0.2,0.1-0.5,0.2-0.6
						c0.4-0.3,0.9-0.3,1.2,0c0.2,0.2,0.3,0.4,0.3,0.6c0,0.2-0.1,0.5-0.2,0.6C609.1,412.8,608.9,412.9,608.7,412.9z"/>
				</g>
				<g>
					<path class="st0" d="M607.8,420.7c0-0.5,0.4-0.9,0.9-0.9l0,0c0.5,0,0.9,0.4,0.9,0.9l0,0c0,0.5-0.4,0.9-0.9,0.9l0,0
						C608.2,421.6,607.8,421.2,607.8,420.7z"/>
				</g>
				<g>
					<path class="st0" d="M608.7,430.3c-0.2,0-0.5-0.1-0.6-0.3c-0.2-0.2-0.3-0.4-0.3-0.6c0-0.2,0.1-0.5,0.3-0.6
						c0.3-0.3,0.9-0.3,1.2,0c0.2,0.2,0.2,0.4,0.2,0.6c0,0.2-0.1,0.4-0.2,0.6C609.1,430.2,608.9,430.3,608.7,430.3z"/>
				</g>
			</g>
		</g>
		<g>
			<g>
				<g>
					<path class="st0" d="M509.2,432.8c-0.2,0-0.5-0.1-0.6-0.3c-0.2-0.2-0.3-0.4-0.3-0.6c0-0.2,0.1-0.5,0.3-0.6
						c0.3-0.3,0.9-0.3,1.2,0c0.2,0.2,0.2,0.4,0.2,0.6c0,0.2-0.1,0.5-0.2,0.6C509.7,432.7,509.5,432.8,509.2,432.8z"/>
				</g>
				<g>
					<path class="st0" d="M508.4,464.1c0-0.5,0.4-0.9,0.9-0.9l0,0c0.5,0,0.9,0.4,0.9,0.9l0,0c0,0.5-0.4,0.9-0.9,0.9l0,0
						C508.8,465,508.4,464.6,508.4,464.1z M508.4,456.1c0-0.5,0.4-0.9,0.9-0.9l0,0c0.5,0,0.9,0.4,0.9,0.9l0,0c0,0.5-0.4,0.9-0.9,0.9
						l0,0C508.8,456.9,508.4,456.5,508.4,456.1z M508.4,448c0-0.5,0.4-0.9,0.9-0.9l0,0c0.5,0,0.9,0.4,0.9,0.9l0,0
						c0,0.5-0.4,0.9-0.9,0.9l0,0C508.8,448.9,508.4,448.5,508.4,448z M508.4,440c0-0.5,0.4-0.9,0.9-0.9l0,0c0.5,0,0.9,0.4,0.9,0.9
						l0,0c0,0.5-0.4,0.9-0.9,0.9l0,0C508.8,440.8,508.4,440.5,508.4,440z"/>
				</g>
				<g>
					<path class="st0" d="M509.2,473c-0.2,0-0.4-0.1-0.6-0.2c-0.2-0.2-0.3-0.4-0.3-0.6c0-0.2,0.1-0.5,0.3-0.6c0.3-0.3,0.9-0.3,1.2,0
						c0.2,0.2,0.3,0.4,0.3,0.6c0,0.2-0.1,0.5-0.2,0.6C509.7,472.9,509.5,473,509.2,473z"/>
				</g>
			</g>
			<g>
				<g>
					<path class="st0" d="M514.9,436.4c-0.2,0-0.5-0.1-0.6-0.3c-0.2-0.2-0.2-0.4-0.2-0.6c0-0.2,0.1-0.5,0.2-0.6
						c0.3-0.3,0.9-0.3,1.2,0c0.2,0.2,0.3,0.4,0.3,0.6c0,0.2-0.1,0.4-0.2,0.6C515.3,436.3,515.1,436.4,514.9,436.4z"/>
				</g>
				<g>
					<path class="st0" d="M514,458.7c0-0.5,0.4-0.9,0.9-0.9l0,0c0.5,0,0.9,0.4,0.9,0.9l0,0c0,0.5-0.4,0.9-0.9,0.9l0,0
						C514.4,459.6,514,459.2,514,458.7z M514,451c0-0.5,0.4-0.9,0.9-0.9l0,0c0.5,0,0.9,0.4,0.9,0.9l0,0c0,0.5-0.4,0.9-0.9,0.9l0,0
						C514.4,451.8,514,451.4,514,451z M514,443.2c0-0.5,0.4-0.9,0.9-0.9l0,0c0.5,0,0.9,0.4,0.9,0.9l0,0c0,0.5-0.4,0.9-0.9,0.9l0,0
						C514.4,444.1,514,443.7,514,443.2z"/>
				</g>
				<g>
					<path class="st0" d="M514.9,467.3c-0.2,0-0.5-0.1-0.6-0.2c-0.2-0.2-0.3-0.4-0.3-0.6c0-0.2,0.1-0.5,0.2-0.6
						c0.4-0.3,0.9-0.3,1.2,0c0.2,0.2,0.3,0.4,0.3,0.6c0,0.2-0.1,0.5-0.3,0.6C515.3,467.2,515.1,467.3,514.9,467.3z"/>
				</g>
			</g>
			<g>
				<g>
					<path class="st0" d="M520.5,441.6c-0.2,0-0.4-0.1-0.6-0.3c-0.2-0.2-0.3-0.4-0.3-0.6c0-0.2,0.1-0.5,0.3-0.6
						c0.3-0.3,0.9-0.3,1.2,0c0.2,0.2,0.3,0.4,0.3,0.6c0,0.2-0.1,0.5-0.3,0.6C521,441.5,520.8,441.6,520.5,441.6z"/>
				</g>
				<g>
					<path class="st0" d="M519.6,448.8c0-0.5,0.4-0.9,0.9-0.9l0,0c0.5,0,0.9,0.4,0.9,0.9l0,0c0,0.5-0.4,0.9-0.9,0.9l0,0
						C520,449.7,519.6,449.3,519.6,448.8z"/>
				</g>
				<g>
					<path class="st0" d="M520.5,457.8c-0.2,0-0.4-0.1-0.6-0.2c-0.2-0.2-0.3-0.4-0.3-0.6c0-0.2,0.1-0.5,0.3-0.6
						c0.3-0.3,0.9-0.3,1.2,0c0.2,0.2,0.3,0.4,0.3,0.6c0,0.2-0.1,0.5-0.3,0.6C521,457.7,520.7,457.8,520.5,457.8z"/>
				</g>
			</g>
		</g>
		<g>
			<g>
				<path class="st0" d="M441.7,526.4c0-0.5,0.4-0.9,0.9-0.9l0,0c0.5,0,0.9,0.4,0.9,0.9l0,0c0,0.5-0.4,0.9-0.9,0.9l0,0
					C442.1,527.2,441.7,526.8,441.7,526.4z M441.7,519.4c0-0.5,0.4-0.9,0.9-0.9l0,0c0.5,0,0.9,0.4,0.9,0.9l0,0
					c0,0.5-0.4,0.9-0.9,0.9l0,0C442.1,520.2,441.7,519.8,441.7,519.4z M441.7,512.4c0-0.5,0.4-0.9,0.9-0.9l0,0
					c0.5,0,0.9,0.4,0.9,0.9l0,0c0,0.5-0.4,0.9-0.9,0.9l0,0C442.1,513.2,441.7,512.8,441.7,512.4z M441.7,505.4
					c0-0.5,0.4-0.9,0.9-0.9l0,0c0.5,0,0.9,0.4,0.9,0.9l0,0c0,0.5-0.4,0.9-0.9,0.9l0,0C442.1,506.2,441.7,505.8,441.7,505.4z"/>
			</g>
			<g>
				<path class="st0" d="M446.7,521.5c0-0.5,0.4-0.9,0.9-0.9l0,0c0.5,0,0.9,0.4,0.9,0.9l0,0c0,0.5-0.4,0.9-0.9,0.9l0,0
					C447.1,522.4,446.7,522,446.7,521.5z M446.7,514.5c0-0.5,0.4-0.9,0.9-0.9l0,0c0.5,0,0.9,0.4,0.9,0.9l0,0c0,0.5-0.4,0.9-0.9,0.9
					l0,0C447.1,515.4,446.7,515,446.7,514.5z M446.7,507.5c0-0.5,0.4-0.9,0.9-0.9l0,0c0.5,0,0.9,0.4,0.9,0.9l0,0
					c0,0.5-0.4,0.9-0.9,0.9l0,0C447.1,508.4,446.7,508,446.7,507.5z"/>
			</g>
			<g>
				<path class="st0" d="M451.7,517.6c0-0.5,0.4-0.9,0.9-0.9l0,0c0.5,0,0.9,0.4,0.9,0.9l0,0c0,0.5-0.4,0.9-0.9,0.9l0,0
					C452.1,518.5,451.7,518.1,451.7,517.6z M451.7,510.6c0-0.5,0.4-0.9,0.9-0.9l0,0c0.5,0,0.9,0.4,0.9,0.9l0,0
					c0,0.5-0.4,0.9-0.9,0.9l0,0C452.1,511.5,451.7,511.1,451.7,510.6z"/>
			</g>
		</g>
		<g>
			<g>
				<path class="st0" d="M645.1,547.1c0-0.5,0.4-0.9,0.9-0.9l0,0c0.5,0,0.9,0.4,0.9,0.9l0,0c0,0.5-0.4,0.9-0.9,0.9l0,0
					C645.5,548,645.1,547.6,645.1,547.1z M645.1,540.1c0-0.5,0.4-0.9,0.9-0.9l0,0c0.5,0,0.9,0.4,0.9,0.9l0,0c0,0.5-0.4,0.9-0.9,0.9
					l0,0C645.5,541,645.1,540.6,645.1,540.1z M645.1,533.1c0-0.5,0.4-0.9,0.9-0.9l0,0c0.5,0,0.9,0.4,0.9,0.9l0,0
					c0,0.5-0.4,0.9-0.9,0.9l0,0C645.5,534,645.1,533.6,645.1,533.1z M645.1,526.1c0-0.5,0.4-0.9,0.9-0.9l0,0c0.5,0,0.9,0.4,0.9,0.9
					l0,0c0,0.5-0.4,0.9-0.9,0.9l0,0C645.5,527,645.1,526.6,645.1,526.1z"/>
			</g>
			<g>
				<path class="st0" d="M650.1,542.3c0-0.5,0.4-0.9,0.9-0.9l0,0c0.5,0,0.9,0.4,0.9,0.9l0,0c0,0.5-0.4,0.9-0.9,0.9l0,0
					C650.5,543.1,650.1,542.7,650.1,542.3z M650.1,535.3c0-0.5,0.4-0.9,0.9-0.9l0,0c0.5,0,0.9,0.4,0.9,0.9l0,0
					c0,0.5-0.4,0.9-0.9,0.9l0,0C650.5,536.1,650.1,535.7,650.1,535.3z M650.1,528.3c0-0.5,0.4-0.9,0.9-0.9l0,0
					c0.5,0,0.9,0.4,0.9,0.9l0,0c0,0.5-0.4,0.9-0.9,0.9l0,0C650.5,529.1,650.1,528.7,650.1,528.3z"/>
			</g>
			<g>
				<path class="st0" d="M655.1,538.4c0-0.5,0.4-0.9,0.9-0.9l0,0c0.5,0,0.9,0.4,0.9,0.9l0,0c0,0.5-0.4,0.9-0.9,0.9l0,0
					C655.5,539.3,655.1,538.9,655.1,538.4z M655.1,531.4c0-0.5,0.4-0.9,0.9-0.9l0,0c0.5,0,0.9,0.4,0.9,0.9l0,0
					c0,0.5-0.4,0.9-0.9,0.9l0,0C655.5,532.3,655.1,531.9,655.1,531.4z"/>
			</g>
		</g>
		<g>
			<path class="st0" d="M462.2,626.6c0-0.5,0.4-0.9,0.9-0.9l0,0c0.5,0,0.9,0.4,0.9,0.9l0,0c0,0.5-0.4,0.9-0.9,0.9l0,0
				C462.6,627.5,462.2,627.1,462.2,626.6z M462.2,619.6c0-0.5,0.4-0.9,0.9-0.9l0,0c0.5,0,0.9,0.4,0.9,0.9l0,0c0,0.5-0.4,0.9-0.9,0.9
				l0,0C462.6,620.4,462.2,620.1,462.2,619.6z M462.2,612.6c0-0.5,0.4-0.9,0.9-0.9l0,0c0.5,0,0.9,0.4,0.9,0.9l0,0
				c0,0.5-0.4,0.9-0.9,0.9l0,0C462.6,613.4,462.2,613.1,462.2,612.6z M462.2,605.6c0-0.5,0.4-0.9,0.9-0.9l0,0c0.5,0,0.9,0.4,0.9,0.9
				l0,0c0,0.5-0.4,0.9-0.9,0.9l0,0C462.6,606.4,462.2,606.1,462.2,605.6z M462.2,598.6c0-0.5,0.4-0.9,0.9-0.9l0,0
				c0.5,0,0.9,0.4,0.9,0.9l0,0c0,0.5-0.4,0.9-0.9,0.9l0,0C462.6,599.4,462.2,599.1,462.2,598.6z M462.2,591.6c0-0.5,0.4-0.9,0.9-0.9
				l0,0c0.5,0,0.9,0.4,0.9,0.9l0,0c0,0.5-0.4,0.9-0.9,0.9l0,0C462.6,592.4,462.2,592.1,462.2,591.6z M462.2,584.6
				c0-0.5,0.4-0.9,0.9-0.9l0,0c0.5,0,0.9,0.4,0.9,0.9l0,0c0,0.5-0.4,0.9-0.9,0.9l0,0C462.6,585.4,462.2,585.1,462.2,584.6z
				 M462.2,577.6c0-0.5,0.4-0.9,0.9-0.9l0,0c0.5,0,0.9,0.4,0.9,0.9l0,0c0,0.5-0.4,0.9-0.9,0.9l0,0
				C462.6,578.4,462.2,578.1,462.2,577.6z"/>
		</g>
		<g>
			<path class="st0" d="M456.4,626.6c0-0.5,0.4-0.9,0.9-0.9l0,0c0.5,0,0.9,0.4,0.9,0.9l0,0c0,0.5-0.4,0.9-0.9,0.9l0,0
				C456.8,627.5,456.4,627.1,456.4,626.6z M456.4,619.6c0-0.5,0.4-0.9,0.9-0.9l0,0c0.5,0,0.9,0.4,0.9,0.9l0,0c0,0.5-0.4,0.9-0.9,0.9
				l0,0C456.8,620.5,456.4,620.1,456.4,619.6z M456.4,612.6c0-0.5,0.4-0.9,0.9-0.9l0,0c0.5,0,0.9,0.4,0.9,0.9l0,0
				c0,0.5-0.4,0.9-0.9,0.9l0,0C456.8,613.5,456.4,613.1,456.4,612.6z M456.4,605.6c0-0.5,0.4-0.9,0.9-0.9l0,0c0.5,0,0.9,0.4,0.9,0.9
				l0,0c0,0.5-0.4,0.9-0.9,0.9l0,0C456.8,606.5,456.4,606.1,456.4,605.6z"/>
		</g>
		<g>
			<path class="st0" d="M446.7,678.1c0-0.5,0.4-0.9,0.9-0.9l0,0c0.5,0,0.9,0.4,0.9,0.9l0,0c0,0.5-0.4,0.9-0.9,0.9l0,0
				C447.1,678.9,446.7,678.5,446.7,678.1z M446.7,671.1c0-0.5,0.4-0.9,0.9-0.9l0,0c0.5,0,0.9,0.4,0.9,0.9l0,0c0,0.5-0.4,0.9-0.9,0.9
				l0,0C447.1,671.9,446.7,671.5,446.7,671.1z M446.7,664.1c0-0.5,0.4-0.9,0.9-0.9l0,0c0.5,0,0.9,0.4,0.9,0.9l0,0
				c0,0.5-0.4,0.9-0.9,0.9l0,0C447.1,664.9,446.7,664.5,446.7,664.1z M446.7,657c0-0.5,0.4-0.9,0.9-0.9l0,0c0.5,0,0.9,0.4,0.9,0.9
				l0,0c0,0.5-0.4,0.9-0.9,0.9l0,0C447.1,657.9,446.7,657.5,446.7,657z M446.7,650c0-0.5,0.4-0.9,0.9-0.9l0,0c0.5,0,0.9,0.4,0.9,0.9
				l0,0c0,0.5-0.4,0.9-0.9,0.9l0,0C447.1,650.9,446.7,650.5,446.7,650z"/>
		</g>
		<g>
			<path class="st0" d="M441.1,675.6c0-0.5,0.4-0.9,0.9-0.9l0,0c0.5,0,0.9,0.4,0.9,0.9l0,0c0,0.5-0.4,0.9-0.9,0.9l0,0
				C441.5,676.5,441.1,676.1,441.1,675.6z M441.1,668.6c0-0.5,0.4-0.9,0.9-0.9l0,0c0.5,0,0.9,0.4,0.9,0.9l0,0c0,0.5-0.4,0.9-0.9,0.9
				l0,0C441.5,669.5,441.1,669.1,441.1,668.6z M441.1,661.6c0-0.5,0.4-0.9,0.9-0.9l0,0c0.5,0,0.9,0.4,0.9,0.9l0,0
				c0,0.5-0.4,0.9-0.9,0.9l0,0C441.5,662.5,441.1,662.1,441.1,661.6z M441.1,654.6c0-0.5,0.4-0.9,0.9-0.9l0,0c0.5,0,0.9,0.4,0.9,0.9
				l0,0c0,0.5-0.4,0.9-0.9,0.9l0,0C441.5,655.5,441.1,655.1,441.1,654.6z"/>
		</g>
		<g>
			<path class="st0" d="M531.9,615.7c0-0.5,0.4-0.9,0.9-0.9l0,0c0.5,0,0.9,0.4,0.9,0.9l0,0c0,0.5-0.4,0.9-0.9,0.9l0,0
				C532.3,616.5,531.9,616.1,531.9,615.7z M531.9,608.7c0-0.5,0.4-0.9,0.9-0.9l0,0c0.5,0,0.9,0.4,0.9,0.9l0,0c0,0.5-0.4,0.9-0.9,0.9
				l0,0C532.3,609.5,531.9,609.1,531.9,608.7z"/>
		</g>
		<g>
			<path class="st0" d="M539.6,615.7c0-0.5,0.4-0.9,0.9-0.9l0,0c0.5,0,0.9,0.4,0.9,0.9l0,0c0,0.5-0.4,0.9-0.9,0.9l0,0
				C540,616.5,539.6,616.1,539.6,615.7z M539.6,608.7c0-0.5,0.4-0.9,0.9-0.9l0,0c0.5,0,0.9,0.4,0.9,0.9l0,0c0,0.5-0.4,0.9-0.9,0.9
				l0,0C540,609.5,539.6,609.1,539.6,608.7z M539.6,601.6c0-0.5,0.4-0.9,0.9-0.9l0,0c0.5,0,0.9,0.4,0.9,0.9l0,0
				c0,0.5-0.4,0.9-0.9,0.9l0,0C540,602.5,539.6,602.1,539.6,601.6z M539.6,594.6c0-0.5,0.4-0.9,0.9-0.9l0,0c0.5,0,0.9,0.4,0.9,0.9
				l0,0c0,0.5-0.4,0.9-0.9,0.9l0,0C540,595.5,539.6,595.1,539.6,594.6z M539.6,587.6c0-0.5,0.4-0.9,0.9-0.9l0,0
				c0.5,0,0.9,0.4,0.9,0.9l0,0c0,0.5-0.4,0.9-0.9,0.9l0,0C540,588.5,539.6,588.1,539.6,587.6z"/>
		</g>
		<g>
			<path class="st0" d="M547.4,614.4c0-0.5,0.4-0.9,0.9-0.9l0,0c0.5,0,0.9,0.4,0.9,0.9l0,0c0,0.5-0.4,0.9-0.9,0.9l0,0
				C547.8,615.3,547.4,614.9,547.4,614.4z M547.4,607.4c0-0.5,0.4-0.9,0.9-0.9l0,0c0.5,0,0.9,0.4,0.9,0.9l0,0c0,0.5-0.4,0.9-0.9,0.9
				l0,0C547.8,608.2,547.4,607.9,547.4,607.4z M547.4,600.4c0-0.5,0.4-0.9,0.9-0.9l0,0c0.5,0,0.9,0.4,0.9,0.9l0,0
				c0,0.5-0.4,0.9-0.9,0.9l0,0C547.8,601.2,547.4,600.9,547.4,600.4z"/>
		</g>
		<g>
			<path class="st0" d="M515.1,682.4c0-0.5,0.4-0.9,0.9-0.9l0,0c0.5,0,0.9,0.4,0.9,0.9l0,0c0,0.5-0.4,0.9-0.9,0.9l0,0
				C515.5,683.3,515.1,682.9,515.1,682.4z M515.1,675.4c0-0.5,0.4-0.9,0.9-0.9l0,0c0.5,0,0.9,0.4,0.9,0.9l0,0c0,0.5-0.4,0.9-0.9,0.9
				l0,0C515.5,676.3,515.1,675.9,515.1,675.4z M515.1,668.4c0-0.5,0.4-0.9,0.9-0.9l0,0c0.5,0,0.9,0.4,0.9,0.9l0,0
				c0,0.5-0.4,0.9-0.9,0.9l0,0C515.5,669.3,515.1,668.9,515.1,668.4z M515.1,661.4c0-0.5,0.4-0.9,0.9-0.9l0,0c0.5,0,0.9,0.4,0.9,0.9
				l0,0c0,0.5-0.4,0.9-0.9,0.9l0,0C515.5,662.3,515.1,661.9,515.1,661.4z M515.1,654.4c0-0.5,0.4-0.9,0.9-0.9l0,0
				c0.5,0,0.9,0.4,0.9,0.9l0,0c0,0.5-0.4,0.9-0.9,0.9l0,0C515.5,655.3,515.1,654.9,515.1,654.4z M515.1,647.4c0-0.5,0.4-0.9,0.9-0.9
				l0,0c0.5,0,0.9,0.4,0.9,0.9l0,0c0,0.5-0.4,0.9-0.9,0.9l0,0C515.5,648.3,515.1,647.9,515.1,647.4z M515.1,640.4
				c0-0.5,0.4-0.9,0.9-0.9l0,0c0.5,0,0.9,0.4,0.9,0.9l0,0c0,0.5-0.4,0.9-0.9,0.9l0,0C515.5,641.3,515.1,640.9,515.1,640.4z"/>
		</g>
		<g>
			<path class="st0" d="M510,685.7c0-0.5,0.4-0.9,0.9-0.9l0,0c0.5,0,0.9,0.4,0.9,0.9l0,0c0,0.5-0.4,0.9-0.9,0.9l0,0
				C510.4,686.6,510,686.2,510,685.7z M510,678.7c0-0.5,0.4-0.9,0.9-0.9l0,0c0.5,0,0.9,0.4,0.9,0.9l0,0c0,0.5-0.4,0.9-0.9,0.9l0,0
				C510.4,679.6,510,679.2,510,678.7z M510,671.7c0-0.5,0.4-0.9,0.9-0.9l0,0c0.5,0,0.9,0.4,0.9,0.9l0,0c0,0.5-0.4,0.9-0.9,0.9l0,0
				C510.4,672.6,510,672.2,510,671.7z M510,664.7c0-0.5,0.4-0.9,0.9-0.9l0,0c0.5,0,0.9,0.4,0.9,0.9l0,0c0,0.5-0.4,0.9-0.9,0.9l0,0
				C510.4,665.6,510,665.2,510,664.7z"/>
		</g>
		<g>
			<path class="st0" d="M650.1,687c0-0.5,0.4-0.9,0.9-0.9l0,0c0.5,0,0.9,0.4,0.9,0.9l0,0c0,0.5-0.4,0.9-0.9,0.9l0,0
				C650.5,687.9,650.1,687.5,650.1,687z M650.1,680c0-0.5,0.4-0.9,0.9-0.9l0,0c0.5,0,0.9,0.4,0.9,0.9l0,0c0,0.5-0.4,0.9-0.9,0.9l0,0
				C650.5,680.9,650.1,680.5,650.1,680z M650.1,673c0-0.5,0.4-0.9,0.9-0.9l0,0c0.5,0,0.9,0.4,0.9,0.9l0,0c0,0.5-0.4,0.9-0.9,0.9l0,0
				C650.5,673.9,650.1,673.5,650.1,673z M650.1,666c0-0.5,0.4-0.9,0.9-0.9l0,0c0.5,0,0.9,0.4,0.9,0.9l0,0c0,0.5-0.4,0.9-0.9,0.9l0,0
				C650.5,666.9,650.1,666.5,650.1,666z M650.1,659c0-0.5,0.4-0.9,0.9-0.9l0,0c0.5,0,0.9,0.4,0.9,0.9l0,0c0,0.5-0.4,0.9-0.9,0.9l0,0
				C650.5,659.9,650.1,659.5,650.1,659z"/>
		</g>
		<g>
			<path class="st0" d="M647.3,687c0-0.5,0.4-0.9,0.9-0.9l0,0c0.5,0,0.9,0.4,0.9,0.9l0,0c0,0.5-0.4,0.9-0.9,0.9l0,0
				C647.7,687.9,647.3,687.5,647.3,687z M647.3,680c0-0.5,0.4-0.9,0.9-0.9l0,0c0.5,0,0.9,0.4,0.9,0.9l0,0c0,0.5-0.4,0.9-0.9,0.9l0,0
				C647.7,680.9,647.3,680.5,647.3,680z M647.3,673c0-0.5,0.4-0.9,0.9-0.9l0,0c0.5,0,0.9,0.4,0.9,0.9l0,0c0,0.5-0.4,0.9-0.9,0.9l0,0
				C647.7,673.9,647.3,673.5,647.3,673z"/>
		</g>
		<g>
			<path class="st0" d="M671.5,643.3c0-0.5,0.4-0.9,0.9-0.9l0,0c0.5,0,0.9,0.4,0.9,0.9l0,0c0,0.5-0.4,0.9-0.9,0.9l0,0
				C671.9,644.2,671.5,643.8,671.5,643.3z M671.5,636.3c0-0.5,0.4-0.9,0.9-0.9l0,0c0.5,0,0.9,0.4,0.9,0.9l0,0c0,0.5-0.4,0.9-0.9,0.9
				l0,0C671.9,637.2,671.5,636.8,671.5,636.3z M671.5,629.3c0-0.5,0.4-0.9,0.9-0.9l0,0c0.5,0,0.9,0.4,0.9,0.9l0,0
				c0,0.5-0.4,0.9-0.9,0.9l0,0C671.9,630.2,671.5,629.8,671.5,629.3z"/>
		</g>
		<g>
			<path class="st0" d="M665.9,642.4c0-0.5,0.4-0.9,0.9-0.9l0,0c0.5,0,0.9,0.4,0.9,0.9l0,0c0,0.5-0.4,0.9-0.9,0.9l0,0
				C666.3,643.3,665.9,642.9,665.9,642.4z M665.9,635.4c0-0.5,0.4-0.9,0.9-0.9l0,0c0.5,0,0.9,0.4,0.9,0.9l0,0c0,0.5-0.4,0.9-0.9,0.9
				l0,0C666.3,636.3,665.9,635.9,665.9,635.4z M665.9,628.4c0-0.5,0.4-0.9,0.9-0.9l0,0c0.5,0,0.9,0.4,0.9,0.9l0,0
				c0,0.5-0.4,0.9-0.9,0.9l0,0C666.3,629.3,665.9,628.9,665.9,628.4z M665.9,621.4c0-0.5,0.4-0.9,0.9-0.9l0,0c0.5,0,0.9,0.4,0.9,0.9
				l0,0c0,0.5-0.4,0.9-0.9,0.9l0,0C666.3,622.3,665.9,621.9,665.9,621.4z M665.9,614.4c0-0.5,0.4-0.9,0.9-0.9l0,0
				c0.5,0,0.9,0.4,0.9,0.9l0,0c0,0.5-0.4,0.9-0.9,0.9l0,0C666.3,615.3,665.9,614.9,665.9,614.4z"/>
		</g>
		<g>
			<path class="st0" d="M660.3,642.4c0-0.5,0.4-0.9,0.9-0.9l0,0c0.5,0,0.9,0.4,0.9,0.9l0,0c0,0.5-0.4,0.9-0.9,0.9l0,0
				C660.7,643.3,660.3,642.9,660.3,642.4z M660.3,635.4c0-0.5,0.4-0.9,0.9-0.9l0,0c0.5,0,0.9,0.4,0.9,0.9l0,0c0,0.5-0.4,0.9-0.9,0.9
				l0,0C660.7,636.3,660.3,635.9,660.3,635.4z M660.3,628.4c0-0.5,0.4-0.9,0.9-0.9l0,0c0.5,0,0.9,0.4,0.9,0.9l0,0
				c0,0.5-0.4,0.9-0.9,0.9l0,0C660.7,629.3,660.3,628.9,660.3,628.4z"/>
		</g>
		<g>
			<path class="st0" d="M601.4,685.7c0-0.5,0.4-0.9,0.9-0.9l0,0c0.5,0,0.9,0.4,0.9,0.9l0,0c0,0.5-0.4,0.9-0.9,0.9l0,0
				C601.8,686.6,601.4,686.2,601.4,685.7z M601.4,678.7c0-0.5,0.4-0.9,0.9-0.9l0,0c0.5,0,0.9,0.4,0.9,0.9l0,0c0,0.5-0.4,0.9-0.9,0.9
				l0,0C601.8,679.6,601.4,679.2,601.4,678.7z M601.4,671.7c0-0.5,0.4-0.9,0.9-0.9l0,0c0.5,0,0.9,0.4,0.9,0.9l0,0
				c0,0.5-0.4,0.9-0.9,0.9l0,0C601.8,672.6,601.4,672.2,601.4,671.7z M601.4,664.7c0-0.5,0.4-0.9,0.9-0.9l0,0c0.5,0,0.9,0.4,0.9,0.9
				l0,0c0,0.5-0.4,0.9-0.9,0.9l0,0C601.8,665.6,601.4,665.2,601.4,664.7z"/>
		</g>
		<g>
			<path class="st0" d="M594.6,687c0-0.5,0.4-0.9,0.9-0.9l0,0c0.5,0,0.9,0.4,0.9,0.9l0,0c0,0.5-0.4,0.9-0.9,0.9l0,0
				C595,687.9,594.6,687.5,594.6,687z M594.6,680c0-0.5,0.4-0.9,0.9-0.9l0,0c0.5,0,0.9,0.4,0.9,0.9l0,0c0,0.5-0.4,0.9-0.9,0.9l0,0
				C595,680.9,594.6,680.5,594.6,680z M594.6,673c0-0.5,0.4-0.9,0.9-0.9l0,0c0.5,0,0.9,0.4,0.9,0.9l0,0c0,0.5-0.4,0.9-0.9,0.9l0,0
				C595,673.9,594.6,673.5,594.6,673z M594.6,666c0-0.5,0.4-0.9,0.9-0.9l0,0c0.5,0,0.9,0.4,0.9,0.9l0,0c0,0.5-0.4,0.9-0.9,0.9l0,0
				C595,666.9,594.6,666.5,594.6,666z M594.6,659c0-0.5,0.4-0.9,0.9-0.9l0,0c0.5,0,0.9,0.4,0.9,0.9l0,0c0,0.5-0.4,0.9-0.9,0.9l0,0
				C595,659.9,594.6,659.5,594.6,659z"/>
		</g>
		<g>
			<path class="st0" d="M620.3,511c0-0.5,0.4-0.9,0.9-0.9l0,0c0.5,0,0.9,0.4,0.9,0.9l0,0c0,0.5-0.4,0.9-0.9,0.9l0,0
				C620.7,511.9,620.3,511.5,620.3,511z M620.3,504c0-0.5,0.4-0.9,0.9-0.9l0,0c0.5,0,0.9,0.4,0.9,0.9l0,0c0,0.5-0.4,0.9-0.9,0.9l0,0
				C620.7,504.9,620.3,504.5,620.3,504z M620.3,497c0-0.5,0.4-0.9,0.9-0.9l0,0c0.5,0,0.9,0.4,0.9,0.9l0,0c0,0.5-0.4,0.9-0.9,0.9l0,0
				C620.7,497.9,620.3,497.5,620.3,497z M620.3,490c0-0.5,0.4-0.9,0.9-0.9l0,0c0.5,0,0.9,0.4,0.9,0.9l0,0c0,0.5-0.4,0.9-0.9,0.9l0,0
				C620.7,490.9,620.3,490.5,620.3,490z M620.3,483c0-0.5,0.4-0.9,0.9-0.9l0,0c0.5,0,0.9,0.4,0.9,0.9l0,0c0,0.5-0.4,0.9-0.9,0.9l0,0
				C620.7,483.9,620.3,483.5,620.3,483z M620.3,476c0-0.5,0.4-0.9,0.9-0.9l0,0c0.5,0,0.9,0.4,0.9,0.9l0,0c0,0.5-0.4,0.9-0.9,0.9l0,0
				C620.7,476.9,620.3,476.5,620.3,476z"/>
		</g>
		<g>
			<path class="st0" d="M615,499.6c0-0.5,0.4-0.9,0.9-0.9l0,0c0.5,0,0.9,0.4,0.9,0.9l0,0c0,0.5-0.4,0.9-0.9,0.9l0,0
				C615.4,500.5,615,500.1,615,499.6z M615,492.6c0-0.5,0.4-0.9,0.9-0.9l0,0c0.5,0,0.9,0.4,0.9,0.9l0,0c0,0.5-0.4,0.9-0.9,0.9l0,0
				C615.4,493.5,615,493.1,615,492.6z M615,485.7c0-0.5,0.4-0.9,0.9-0.9l0,0c0.5,0,0.9,0.4,0.9,0.9l0,0c0,0.5-0.4,0.9-0.9,0.9l0,0
				C615.4,486.5,615,486.1,615,485.7z M615,478.7c0-0.5,0.4-0.9,0.9-0.9l0,0c0.5,0,0.9,0.4,0.9,0.9l0,0c0,0.5-0.4,0.9-0.9,0.9l0,0
				C615.4,479.5,615,479.1,615,478.7z M615,471.6c0-0.5,0.4-0.9,0.9-0.9l0,0c0.5,0,0.9,0.4,0.9,0.9l0,0c0,0.5-0.4,0.9-0.9,0.9l0,0
				C615.4,472.5,615,472.1,615,471.6z"/>
		</g>
	</g>
</g>
</svg>
