<?xml version="1.0" encoding="utf-8"?>
<!-- Generator: Adobe Illustrator 27.0.0, SVG Export Plug-In . SVG Version: 6.00 Build 0)  -->
<svg version="1.1" id="Livello_1" xmlns="http://www.w3.org/2000/svg" xmlns:xlink="http://www.w3.org/1999/xlink" x="0px" y="0px"
	 viewBox="0 0 1080 1080" style="enable-background:new 0 0 1080 1080;" xml:space="preserve">
<style type="text/css">
	.st0{fill:#FFFFFF;}
</style>
<g>
	<g>
		<path class="st0" d="M751.8,568.01l-11.92-8.9c-5.08-3.79-11.99-3.97-17.26-0.47l-150.05,99.68c-5.19,3.45-7.7,9.75-6.31,15.82
			l3.24,14.13c1.01,4.17,3.99,7.6,7.98,9.17c3.99,1.57,8.49,1.1,12.08-1.26l60.56-39.94c7.32,11.08,22.29,14.08,33.48,6.71
			c11.16-7.37,14.3-22.32,7.01-33.41l60.56-39.95c3.57-2.36,5.78-6.32,5.91-10.6C757.22,574.68,755.24,570.57,751.8,568.01z"/>
		<path class="st0" d="M574.7,639.94l131.34-84.55c3.45-2.21,5.65-5.88,6-9.95c0.34-4.07-1.21-8.07-4.22-10.83
			c-9.54-8.76-22.22-21.54-30.39-34.23c-21.09-32.76-61.62-46.01-97.29-34.14c10.37,28.48,7.79,60.52-7.67,86.91
			c-6.72,11.42-11.85,27.08-14.98,38.22c-1.95,6.92-6.26,12.95-12.02,17.1c4.84,9.63,7.63,17.64,9.44,24
			c1.15,4.02,4.12,7.24,8.01,8.71C566.83,642.65,571.2,642.19,574.7,639.94z"/>
		<path class="st0" d="M359.49,521.12c-4.49-2.67-10.2-2.16-14.13,1.28l-12.93,11.31c-3.49,2.96-5.32,7.44-4.89,12.01
			c0.42,4.56,3.03,8.62,7.01,10.9l67.21,38.43c-7.03,12.31-2.67,28.01,9.73,35.12c4.09,2.33,8.51,3.45,12.91,3.45
			c8.93,0,17.55-4.61,22.3-12.89l67.21,38.45c2.15,1.22,4.56,1.86,6.98,1.86c2.03,0,4.08-0.45,5.97-1.34
			c4.14-1.96,5.76-5.32,7.86-10.3c1.05-2.5,3.68-10.24,3.68-10.24c1.95-5.44-0.22-11.49-5.17-14.45L359.49,521.12z"/>
		<path class="st0" d="M564.25,459.97l6.77-11.82c5.32-9.29,6.69-20.09,3.89-30.42c-2.82-10.32-9.48-18.93-18.75-24.23l-11.17-6.38
			c-6.03-3.45-12.91-5.28-19.84-5.28c-14.34,0-27.67,7.73-34.79,20.17l-7.04,12.33c-29.92,1-58.72,16.75-74.83,44.19
			c-11.13,18.96-21.63,30.36-29.58,37.7c-3.27,3.02-4.92,7.4-4.44,11.83c0.47,4.42,3.03,8.37,6.87,10.62l143.75,84.37
			c2.19,1.29,4.65,1.93,7.13,1.93c1.77,0,3.55-0.33,5.24-1.01c4.04-1.63,7.12-5.04,8.29-9.22c3.74-13.33,9.81-31.55,17.95-45.43
			C580.3,520.95,579.38,486.95,564.25,459.97z M545.42,433.5l-1.2,2.12c-3.93-3.33-8.13-6.43-12.72-9.13
			c-5.43-3.19-11.06-5.72-16.8-7.65l1.24-2.18c1.9-3.31,5.6-5.24,9.32-5.25c1.74,0,3.49,0.41,5.07,1.32l11.17,6.38
			c2.43,1.39,4.2,3.66,4.93,6.38C547.18,428.21,546.81,431.05,545.42,433.5z"/>
	</g>
</g>
</svg>
