<?xml version="1.0" encoding="utf-8"?>
<!-- Generator: Adobe Illustrator 27.0.0, SVG Export Plug-In . SVG Version: 6.00 Build 0)  -->
<svg version="1.1" id="Livello_1" xmlns="http://www.w3.org/2000/svg" xmlns:xlink="http://www.w3.org/1999/xlink" x="0px" y="0px"
	 viewBox="0 0 1080 1080" style="enable-background:new 0 0 1080 1080;" xml:space="preserve">
<style type="text/css">
	.st0{fill:#FFFFFF;}
</style>
<g>
	<path class="st0" d="M699.4,415.4v58.4c0,8.5-6.9,15.5-15.5,15.5H397.2c-8.5,0-15.5-6.9-15.5-15.5v-58.4c0-8.5,6.9-15.5,15.5-15.5
		h27.3v26.2c0,12,9.7,21.7,21.7,21.7h28c12,0,21.7-9.7,21.7-21.7v-26.2h89.2v26.2c0,12,9.7,21.7,21.7,21.7h28
		c12,0,21.7-9.7,21.7-21.7v-26.2h27.3C692.4,399.9,699.4,406.9,699.4,415.4z"/>
	<path class="st0" d="M683.9,512.5H397.2c-8.5,0-15.5,6.9-15.5,15.5v154.8c0,8.5,6.9,15.5,15.5,15.5h286.7c8.5,0,15.5-6.9,15.5-15.5
		V528C699.4,519.5,692.4,512.5,683.9,512.5z M453.2,676.6h-50.9v-37.4h50.9V676.6z M453.2,624.1h-50.9v-37.4h50.9V624.1z
		 M528.4,676.6h-50.9v-37.4h50.9V676.6z M528.4,624.1h-50.9v-37.4h50.9V624.1z M528.4,571.7h-50.9v-37.4h50.9V571.7z M603.6,624.1
		h-50.9v-37.4h50.9V624.1z M603.6,571.7h-50.9v-37.4h50.9V571.7z M678.7,624.1h-50.9v-37.4h50.9V624.1z M678.7,571.7h-50.9v-37.4
		h50.9V571.7z"/>
	<g>
		<path class="st0" d="M463.8,438.5h-7.1c-12.6,0-22.7-10.2-22.7-22.7v-31.6c0-12.6,10.2-22.7,22.7-22.7h7.1
			c12.6,0,22.7,10.2,22.7,22.7v31.6C486.5,428.3,476.4,438.5,463.8,438.5z"/>
		<path class="st0" d="M624.4,438.5h-7.1c-12.6,0-22.7-10.2-22.7-22.7v-31.6c0-12.6,10.2-22.7,22.7-22.7h7.1
			c12.6,0,22.7,10.2,22.7,22.7v31.6C647.2,428.3,637,438.5,624.4,438.5z"/>
	</g>
</g>
</svg>
