<?xml version="1.0" encoding="utf-8"?>
<!-- Generator: Adobe Illustrator 27.0.0, SVG Export Plug-In . SVG Version: 6.00 Build 0)  -->
<svg version="1.1" id="Livello_1" xmlns="http://www.w3.org/2000/svg" xmlns:xlink="http://www.w3.org/1999/xlink" x="0px" y="0px"
	 viewBox="0 0 1080 1080" style="enable-background:new 0 0 1080 1080;" xml:space="preserve">
<style type="text/css">
	.st0{fill:#FFFFFF;}
</style>
<g>
	
		<ellipse transform="matrix(0.7071 -0.7071 0.7071 0.7071 -138.8549 505.4389)" class="st0" cx="540.69" cy="420.33" rx="39.18" ry="39.18"/>
	
		<ellipse transform="matrix(0.9239 -0.3827 0.3827 0.9239 -124.9459 271.8028)" class="st0" cx="620.75" cy="449.97" rx="33.13" ry="33.13"/>
	
		<ellipse transform="matrix(0.0958 -0.9954 0.9954 0.0958 -32.4224 864.2559)" class="st0" cx="459.51" cy="449.97" rx="33.13" ry="33.13"/>
	<path class="st0" d="M714.19,609.32c-4.91-16.03-22.86-21.5-38.62-16.91l-61.27,18.57c-1.59,0.48-2.23,2.37-1.28,3.75
		c5.21,7.58,6.96,17.66,3.47,27.03v0c-5.65,15.12-22.51,22.77-37.28,17.25l-60.22-22.49c-1.32-0.49-1.96-2-1.38-3.29
		c0.53-1.19,1.88-1.76,3.1-1.3l59.37,22.17c12.68,4.74,27-1.54,31.69-14.24c5.12-13.88-2.76-27.13-16.63-32.32l-98.1-36.64
		c-14.06-5.85-29.38-6.65-44.68-1.11l-58.99,21.05c-18.15,6.47-30.05,23.9-29.49,43.16v0c0.87,29.8,30.28,50.37,58.53,40.85
		c12.27-4.13,23.69-7.14,30.84-7.08c31.26,0.24,71.32,22.63,85.01,27.44c8.6,3.02,14.04,3.04,21.81,0.06
		c2.74-1.05,5.48-2.1,8.29-2.93c0.08-0.02,0.16-0.05,0.24-0.08l123.3-51.23c0.08-0.03,0.16-0.06,0.24-0.08
		C707.79,636.32,718.53,623.48,714.19,609.32z"/>
	<path class="st0" d="M655.01,507.34c-9.15-9.15-21.32-14.19-34.26-14.19c-10.15,0-19.92,3.15-28.08,8.97
		c-2.78-5.73-6.53-11.02-11.16-15.66c-10.9-10.9-25.4-16.91-40.82-16.91c-15.42,0-29.91,6-40.82,16.91
		c-4.8,4.8-8.65,10.29-11.45,16.26c-8.32-6.2-18.37-9.57-28.91-9.57c-12.94,0-25.11,5.04-34.26,14.19
		c-9.15,9.15-14.19,21.32-14.19,34.26v24c0,4.42,0.59,8.75,1.73,12.9l40.18-14.34c9.41-3.41,18.83-4.41,27.96-3.32v-21.93
		c0-6.85,1.15-13.55,3.43-19.91c0.62-1.73,2.52-2.63,4.25-2.01c1.73,0.62,2.63,2.52,2.01,4.25c-2.02,5.65-3.04,11.59-3.04,17.67
		v23.11c3.41,0.8,6.77,1.89,10.07,3.26l84.25,31.46c0,0,1.07,0.43,2.72,1.09c5.45-8.45,8.3-18.17,8.3-28.4v-30.52
		c0-6.42-1.14-12.68-3.39-18.62c-0.65-1.72,0.21-3.64,1.93-4.29c1.72-0.65,3.64,0.21,4.29,1.93c2.53,6.69,3.82,13.75,3.82,20.97
		v30.52c0,6.81-1.15,13.49-3.4,19.85c-1.38,3.88-3.15,7.58-5.29,11.08c4.75,1.92,9.8,3.99,10.78,4.46
		c5.43,2.64,11.68,1.02,13.27,0.54l47.03-14.25c4.71-7.59,7.24-16.35,7.24-25.5V541.6C669.2,528.66,664.16,516.49,655.01,507.34z"/>
</g>
</svg>
