<?xml version="1.0" encoding="utf-8"?>
<!-- Generator: Adobe Illustrator 27.0.0, SVG Export Plug-In . SVG Version: 6.00 Build 0)  -->
<svg version="1.1" id="Livello_1" xmlns="http://www.w3.org/2000/svg" xmlns:xlink="http://www.w3.org/1999/xlink" x="0px" y="0px"
	 viewBox="0 0 1080 1080" style="enable-background:new 0 0 1080 1080;" xml:space="preserve">
<style type="text/css">
	.st0{fill:#FFFFFF;}
</style>
<g>
	<g>
		<path class="st0" d="M708.85,633.11c0,15.37,12.46,27.83,27.83,27.83c15.37,0,27.83-12.46,27.83-27.83
			c0-30.32-5.93-59.73-17.64-87.43c-7.77-18.39-17.85-35.48-30.08-51.07l-34.72,47.33C699.01,568.26,708.85,599.56,708.85,633.11z"
			/>
		<path class="st0" d="M627.43,426.24c-27.7-11.7-57.11-17.64-87.43-17.64s-59.73,5.93-87.43,17.64
			c-26.75,11.3-50.75,27.48-71.36,48.09c-20.61,20.61-36.78,44.61-48.09,71.36c-11.7,27.7-17.64,57.11-17.64,87.43
			c0,15.37,12.46,27.83,27.83,27.83c15.37,0,27.83-12.46,27.83-27.83c0-93.11,75.75-168.85,168.85-168.85
			c30.17,0,58.51,7.95,83.04,21.87l45.29-37.33C655.57,439.9,641.9,432.36,627.43,426.24z"/>
		<path class="st0" d="M686.83,463.2l-43.88,36.16L512.36,606.99c-2.34,1.95-4.64,4.34-6.53,6.9c-12.52,17.07-8.84,41.06,8.23,53.58
			c6.83,5.01,14.77,7.43,22.64,7.43c11.79,0,23.43-5.42,30.93-15.66l100.1-136.43l33.64-45.84l0.01-0.01
			C708.41,467.38,696,455.64,686.83,463.2L686.83,463.2z"/>
	</g>
</g>
</svg>
