<?xml version="1.0" encoding="utf-8"?>
<!-- Generator: Adobe Illustrator 27.0.0, SVG Export Plug-In . SVG Version: 6.00 Build 0)  -->
<svg version="1.1" id="Livello_1" xmlns="http://www.w3.org/2000/svg" xmlns:xlink="http://www.w3.org/1999/xlink" x="0px" y="0px"
	 viewBox="0 0 1080 1080" style="enable-background:new 0 0 1080 1080;" xml:space="preserve">
<style type="text/css">
	.st0{fill:#FFFFFF;}
</style>
<g>
	<path class="st0" d="M566.93,461.8h86.69c0.97,0,1.91-0.37,2.62-1.03l18-16.8c0.78-0.73,1.22-1.74,1.22-2.81
		c0-1.07-0.44-2.08-1.22-2.81l-18-16.8c-0.71-0.66-1.65-1.03-2.62-1.03h-86.69c-2.12,0-3.84,1.72-3.84,3.84v33.6
		C563.09,460.08,564.81,461.8,566.93,461.8z"/>
	<path class="st0" d="M656.24,495.77c-0.71-0.66-1.65-1.03-2.62-1.03h-86.69c-2.12,0-3.84,1.72-3.84,3.84v33.6
		c0,2.12,1.72,3.84,3.84,3.84h86.69c0.97,0,1.91-0.37,2.62-1.03l18-16.8c0.78-0.73,1.22-1.74,1.22-2.81c0-1.07-0.44-2.08-1.22-2.81
		L656.24,495.77z"/>
	<path class="st0" d="M516.04,497.94v-33.6c0-2.12-1.72-3.84-3.84-3.84h-86.69c-0.97,0-1.91,0.37-2.62,1.03l-18,16.8
		c-0.78,0.73-1.22,1.74-1.22,2.81c0,1.07,0.44,2.08,1.22,2.81l18,16.8c0.71,0.66,1.65,1.03,2.62,1.03h86.69
		C514.32,501.79,516.04,500.06,516.04,497.94z"/>
	<path class="st0" d="M565.51,670.11h-13.55V398.76c0-0.38-0.07-0.76-0.21-1.11l-9.33-23.97c-0.46-1.18-1.59-1.95-2.85-1.95
		c-1.26,0-2.39,0.77-2.85,1.95l-9.33,23.97c-0.14,0.35-0.21,0.73-0.21,1.11v271.35h-13.55c-6.37,0-11.53,5.16-11.53,11.53
		c0,6.37,5.16,11.53,11.53,11.53h51.9c6.37,0,11.53-5.16,11.53-11.53C577.05,675.27,571.88,670.11,565.51,670.11z"/>
</g>
</svg>
