<?xml version="1.0" encoding="utf-8"?>
<!-- Generator: Adobe Illustrator 27.0.0, SVG Export Plug-In . SVG Version: 6.00 Build 0)  -->
<svg version="1.1" id="Livello_1" xmlns="http://www.w3.org/2000/svg" xmlns:xlink="http://www.w3.org/1999/xlink" x="0px" y="0px"
	 viewBox="0 0 1080 1080" style="enable-background:new 0 0 1080 1080;" xml:space="preserve">
<style type="text/css">
	.st0{fill:#FFFFFF;}
</style>
<g>
	<path class="st0" d="M628.87,568.36c-15.68,9.71-21.12,30.85-12.05,46.91c9.67,17.1,31.42,22.87,48.26,12.92
		c16.62-9.83,22.12-31.28,12.29-47.91C667.42,563.48,645.57,558.02,628.87,568.36z"/>
	<path class="st0" d="M578.43,540.99c3.12-9.2,5.16-18.85,5.99-28.8l-19.86-9.62c0.02-3.22-0.09-6.46-0.38-9.72
		c-0.08-1.13-0.23-2.23-0.36-3.35l18.68-11.81c-1.94-9.81-5.03-19.17-9.14-27.93l-22.06,1.6c-2.15-3.82-4.56-7.49-7.17-10.97
		l10.27-19.53c-6.49-7.38-13.85-13.96-21.91-19.61l-18.3,12.4c-3.75-2.21-7.64-4.19-11.68-5.93l-0.87-22.05
		c-9.19-3.12-18.85-5.16-28.79-6.02l-9.62,19.88c-3.22-0.03-6.44,0.1-9.71,0.38c-1.13,0.1-2.25,0.24-3.35,0.37l-11.79-18.7
		c-9.82,1.96-19.19,5.05-27.95,9.15l1.61,22.06c-3.82,2.16-7.49,4.55-10.96,7.18l-19.55-10.28c-7.39,6.5-13.97,13.86-19.59,21.92
		l12.41,18.28c-2.22,3.75-4.22,7.64-5.95,11.67l-22.06,0.87c-3.12,9.2-5.15,18.84-5.99,28.8l19.87,9.62
		c-0.02,3.22,0.08,6.46,0.36,9.72c0.1,1.13,0.24,2.23,0.39,3.35l-18.7,11.8c1.97,9.81,5.04,19.17,9.15,27.93l22.06-1.6
		c2.16,3.82,4.56,7.48,7.17,10.97l-10.27,19.53c6.49,7.4,13.87,13.98,21.92,19.61l18.29-12.4c3.76,2.23,7.66,4.22,11.68,5.94
		l0.87,22.05c9.19,3.12,18.83,5.16,28.77,6l9.65-19.87c3.21,0.02,6.46-0.09,9.72-0.37c1.12-0.09,2.23-0.25,3.33-0.39l11.8,18.72
		c9.83-1.96,19.19-5.04,27.96-9.14l-1.6-22.07c3.8-2.17,7.47-4.56,10.96-7.18l19.53,10.27c7.38-6.5,13.96-13.86,19.59-21.92
		l-12.39-18.29c2.2-3.76,4.19-7.66,5.94-11.69L578.43,540.99z M462.4,573.74c-39.72,0-72.02-32.31-72.02-72.01
		c0-39.71,32.3-72.01,72.02-72.01c39.71,0,72.01,32.31,72.01,72.01C534.4,541.44,502.1,573.74,462.4,573.74z"/>
	<path class="st0" d="M395.52,501.73c0,36.87,29.99,66.87,66.87,66.87c36.87,0,66.86-30,66.86-66.87
		c0-36.87-29.99-66.87-66.86-66.87C425.51,434.86,395.52,464.86,395.52,501.73z M512.72,497.33c2.42,27.81-18.14,52.31-45.94,54.72
		c-27.79,2.43-52.3-18.15-54.73-45.94c-2.41-27.8,18.16-52.3,45.95-54.71C485.8,448.98,510.31,469.55,512.72,497.33z"/>
	<path class="st0" d="M739.29,608.12c0.65-6.67,0.59-13.39-0.21-20.11l-15.59-3.73c-0.82-4.09-1.98-8.16-3.44-12.16l11.43-11.27
		c-1.37-3.03-2.92-6.02-4.66-8.94c-1.71-2.91-3.59-5.69-5.59-8.36l-15.38,4.6c-2.8-3.23-5.81-6.19-9.02-8.86l4.26-15.46
		c-5.51-3.93-11.37-7.23-17.52-9.87l-11.05,11.68c-3.98-1.38-8.06-2.43-12.2-3.15l-4.08-15.56c-6.65-0.64-13.38-0.57-20.07,0.25
		l-3.76,15.59c-4.09,0.79-8.14,1.95-12.13,3.43l-11.29-11.42c-3.01,1.36-6.03,2.89-8.94,4.63c-2.92,1.72-5.7,3.59-8.36,5.57
		l4.58,15.41c-3.21,2.8-6.18,5.8-8.85,9.01l-15.46-4.24c-3.94,5.49-7.23,11.36-9.87,17.49l11.67,11.06
		c-1.38,3.98-2.39,8.07-3.12,12.21l-15.54,4.08c-0.66,6.65-0.59,13.38,0.21,20.09l15.61,3.71c0.8,4.11,1.94,8.16,3.4,12.18
		l-11.42,11.27c1.37,3.04,2.9,6.01,4.64,8.92c1.73,2.93,3.6,5.73,5.59,8.38l15.4-4.58c2.79,3.21,5.82,6.17,9.01,8.84l-4.24,15.48
		c5.5,3.93,11.35,7.24,17.48,9.84l11.07-11.66c3.99,1.39,8.04,2.42,12.21,3.13l4.07,15.56c6.64,0.63,13.38,0.59,20.09-0.21
		l3.71-15.61c4.1-0.79,8.16-1.95,12.15-3.43l11.32,11.42c3.01-1.35,5.99-2.9,8.91-4.63c2.92-1.73,5.69-3.6,8.36-5.6l-4.58-15.38
		c3.22-2.79,6.18-5.82,8.85-9.02l15.47,4.24c3.93-5.5,7.24-11.36,9.84-17.5l-11.67-11.07c1.37-3.96,2.43-8.03,3.15-12.19
		L739.29,608.12z M645.93,658.82c-32.96-0.69-59.22-28.07-58.52-61.04c0.68-32.96,28.06-59.22,61.03-58.53
		c32.96,0.69,59.21,28.07,58.53,61.04C706.28,633.25,678.9,659.51,645.93,658.82z"/>
	<path class="st0" d="M587.41,597.78c-0.7,32.97,25.56,60.35,58.52,61.04c32.97,0.7,60.35-25.56,61.04-58.53
		c0.68-32.97-25.57-60.35-58.53-61.04C615.47,538.56,588.09,564.82,587.41,597.78z M704.49,600.24c-0.66,31.59-26.9,56.76-58.5,56.1
		c-31.59-0.66-56.76-26.91-56.1-58.5c0.66-31.6,26.9-56.76,58.5-56.1C679.99,542.39,705.16,568.64,704.49,600.24z"/>
</g>
</svg>
