<?xml version="1.0" encoding="utf-8"?>
<!-- Generator: Adobe Illustrator 27.0.0, SVG Export Plug-In . SVG Version: 6.00 Build 0)  -->
<svg version="1.1" id="Livello_1" xmlns="http://www.w3.org/2000/svg" xmlns:xlink="http://www.w3.org/1999/xlink" x="0px" y="0px"
	 viewBox="0 0 1080 1080" style="enable-background:new 0 0 1080 1080;" xml:space="preserve">
<style type="text/css">
	.st0{fill:#2B353B;}
</style>
<g>
	<g>
		<path class="st0" d="M751.8,568l-11.9-8.9c-5.1-3.8-12-4-17.3-0.5l-150,99.7c-5.2,3.5-7.7,9.8-6.3,15.8l3.2,14.1
			c1,4.2,4,7.6,8,9.2s8.5,1.1,12.1-1.3l60.6-39.9c7.3,11.1,22.3,14.1,33.5,6.7c11.2-7.4,14.3-22.3,7-33.4l60.6-40
			c3.6-2.4,5.8-6.3,5.9-10.6C757.2,574.7,755.2,570.6,751.8,568z"/>
		<path class="st0" d="M574.7,639.9L706,555.4c3.5-2.2,5.7-5.9,6-10c0.3-4.1-1.2-8.1-4.2-10.8c-9.5-8.8-22.2-21.5-30.4-34.2
			c-21.1-32.8-61.6-46-97.3-34.1c10.4,28.5,7.8,60.5-7.7,86.9c-6.7,11.4-11.8,27.1-15,38.2c-2,6.9-6.3,13-12,17.1
			c4.8,9.6,7.6,17.6,9.4,24c1.2,4,4.1,7.2,8,8.7C566.8,642.7,571.2,642.2,574.7,639.9z"/>
		<path class="st0" d="M359.5,521.1c-4.5-2.7-10.2-2.2-14.1,1.3l-12.9,11.3c-3.5,3-5.3,7.4-4.9,12c0.4,4.6,3,8.6,7,10.9l67.2,38.4
			c-7,12.3-2.7,28,9.7,35.1c4.1,2.3,8.5,3.5,12.9,3.5c8.9,0,17.5-4.6,22.3-12.9l67.2,38.5c2.2,1.2,4.6,1.9,7,1.9c2,0,4.1-0.5,6-1.3
			c4.1-2,5.8-5.3,7.9-10.3c1-2.5,3.7-10.2,3.7-10.2c2-5.4-0.2-11.5-5.2-14.5L359.5,521.1z"/>
		<path class="st0" d="M564.2,460l6.8-11.8c5.3-9.3,6.7-20.1,3.9-30.4c-2.8-10.3-9.5-18.9-18.8-24.2l-11.2-6.4
			c-6-3.5-12.9-5.3-19.8-5.3c-14.3,0-27.7,7.7-34.8,20.2l-7,12.3c-29.9,1-58.7,16.8-74.8,44.2c-11.1,19-21.6,30.4-29.6,37.7
			c-3.3,3-4.9,7.4-4.4,11.8c0.5,4.4,3,8.4,6.9,10.6L525.1,603c2.2,1.3,4.7,1.9,7.1,1.9c1.8,0,3.5-0.3,5.2-1c4-1.6,7.1-5,8.3-9.2
			c3.7-13.3,9.8-31.5,18-45.4C580.3,521,579.4,487,564.2,460z M545.4,433.5l-1.2,2.1c-3.9-3.3-8.1-6.4-12.7-9.1
			c-5.4-3.2-11.1-5.7-16.8-7.6l1.2-2.2c1.9-3.3,5.6-5.2,9.3-5.2c1.7,0,3.5,0.4,5.1,1.3l11.2,6.4c2.4,1.4,4.2,3.7,4.9,6.4
			C547.2,428.2,546.8,431,545.4,433.5z"/>
	</g>
</g>
</svg>
