<?xml version="1.0" encoding="utf-8"?>
<!-- Generator: Adobe Illustrator 27.0.0, SVG Export Plug-In . SVG Version: 6.00 Build 0)  -->
<svg version="1.1" id="Livello_1" xmlns="http://www.w3.org/2000/svg" xmlns:xlink="http://www.w3.org/1999/xlink" x="0px" y="0px"
	 viewBox="0 0 1080 1080" style="enable-background:new 0 0 1080 1080;" xml:space="preserve">
<style type="text/css">
	.st0{fill:#FFFFFF;}
</style>
<g>
	<g>
		<g>
			<path class="st0" d="M534.92,392.1H420.2c-16.06,0-29.21,13.14-29.21,29.21v184.75c0,16.06,13.14,29.21,29.21,29.21h39.92
				l-20.06,55.15l76.95-55.15h17.92c16.06,0,29.21-13.15,29.21-29.21V421.32C564.14,405.25,550.99,392.1,534.92,392.1z"/>
			<path class="st0" d="M440.05,695.29c-1.03,0-2.07-0.33-2.93-0.99c-1.7-1.29-2.36-3.53-1.63-5.53l17.69-48.63H420.2
				c-18.78,0-34.07-15.28-34.07-34.07V421.32c0-18.79,15.28-34.08,34.07-34.08h114.72c18.79,0,34.08,15.29,34.08,34.08v184.75
				c0,18.79-15.29,34.07-34.08,34.07h-16.35l-75.69,54.25C442.04,694.98,441.05,695.29,440.05,695.29z M420.2,396.97
				c-13.43,0-24.34,10.93-24.34,24.35v184.75c0,13.43,10.92,24.34,24.34,24.34h39.92c1.59,0,3.07,0.78,3.98,2.07
				c0.91,1.3,1.13,2.96,0.59,4.45l-14.69,40.39l64.18-46c0.83-0.59,1.81-0.91,2.83-0.91h17.92c13.43,0,24.35-10.92,24.35-24.34
				V421.32c0-13.43-10.93-24.35-24.35-24.35H420.2z"/>
		</g>
		<g>
			<g>
				<rect x="461.51" y="440.28" class="st0" width="32.1" height="86.84"/>
				<path class="st0" d="M493.61,531.98h-32.1c-2.68,0-4.86-2.18-4.86-4.86v-86.84c0-2.68,2.18-4.86,4.86-4.86h32.1
					c2.68,0,4.86,2.18,4.86,4.86v86.84C498.47,529.8,496.29,531.98,493.61,531.98z M466.37,522.26h22.38v-77.11h-22.38V522.26z"/>
			</g>
			<g>
				<rect x="461.51" y="554.75" class="st0" width="32.1" height="29.09"/>
				<path class="st0" d="M493.61,588.7h-32.1c-2.68,0-4.86-2.18-4.86-4.86v-29.09c0-2.68,2.18-4.86,4.86-4.86h32.1
					c2.68,0,4.86,2.18,4.86,4.86v29.09C498.47,586.52,496.29,588.7,493.61,588.7z M466.37,578.98h22.38v-19.37h-22.38V578.98z"/>
			</g>
		</g>
	</g>
	<g>
		<g>
			<g>
				<g>
					<path class="st0" d="M671.75,577.32c12.53-13.53,20.06-30.72,20.06-49.48c0-43.53-40.47-78.83-90.39-78.83
						c-49.92,0-90.4,35.3-90.4,78.83c0,43.54,40.48,78.82,90.4,78.82c12.81,0,24.97-2.35,36.02-6.53l46.99,23.18L671.75,577.32z"/>
					<path class="st0" d="M684.43,628.18c-0.74,0-1.47-0.17-2.16-0.5l-45.12-22.26c-11.43,4.06-23.44,6.11-35.74,6.11
						c-52.52,0-95.26-37.54-95.26-83.68s42.73-83.69,95.26-83.69c52.52,0,95.25,37.55,95.25,83.69c0,18.31-6.92,36.22-19.53,50.74
						l11.97,43.43c0.51,1.85-0.11,3.82-1.59,5.04C686.64,627.8,685.54,628.18,684.43,628.18z M637.45,595.28
						c0.74,0,1.47,0.17,2.15,0.5l37.28,18.39l-9.81-35.55c-0.45-1.62-0.02-3.36,1.12-4.6c12.28-13.25,18.77-29.21,18.77-46.17
						c0-40.79-38.37-73.97-85.53-73.97c-47.16,0-85.54,33.18-85.54,73.97s38.38,73.96,85.54,73.96c11.84,0,23.39-2.09,34.3-6.22
						C636.28,595.38,636.86,595.28,637.45,595.28z"/>
				</g>
			</g>
		</g>
		<g>
			<g>
				<g>
					<g>
						<g>
							<path class="st0" d="M572.57,527.81c0,8.26-6.69,14.95-14.96,14.95c-8.25,0-14.94-6.69-14.94-14.95s6.69-14.96,14.94-14.96
								C565.88,512.85,572.57,519.55,572.57,527.81z"/>
							<path class="st0" d="M557.61,547.63c-10.92,0-19.81-8.89-19.81-19.82c0-10.93,8.89-19.82,19.81-19.82
								c10.93,0,19.82,8.89,19.82,19.82C577.43,538.74,568.54,547.63,557.61,547.63z M557.61,517.71c-5.55,0-10.08,4.53-10.08,10.1
								c0,5.56,4.53,10.09,10.08,10.09c5.57,0,10.1-4.53,10.1-10.09C567.71,522.24,563.18,517.71,557.61,517.71z"/>
						</g>
					</g>
				</g>
			</g>
			<g>
				<g>
					<g>
						<g>
							<path class="st0" d="M616.38,527.81c0,8.26-6.69,14.95-14.95,14.95s-14.96-6.69-14.96-14.95s6.7-14.96,14.96-14.96
								S616.38,519.55,616.38,527.81z"/>
							<path class="st0" d="M601.42,547.63c-10.93,0-19.82-8.89-19.82-19.82c0-10.93,8.9-19.82,19.82-19.82
								c10.93,0,19.82,8.89,19.82,19.82C621.24,538.74,612.35,547.63,601.42,547.63z M601.42,517.71c-5.57,0-10.1,4.53-10.1,10.1
								c0,5.56,4.53,10.09,10.1,10.09c5.57,0,10.09-4.53,10.09-10.09C611.52,522.24,606.99,517.71,601.42,517.71z"/>
						</g>
					</g>
				</g>
			</g>
			<g>
				<g>
					<g>
						<g>
							<path class="st0" d="M660.19,527.81c0,8.26-6.7,14.95-14.96,14.95c-8.25,0-14.96-6.69-14.96-14.95s6.71-14.96,14.96-14.96
								C653.49,512.85,660.19,519.55,660.19,527.81z"/>
							<path class="st0" d="M645.23,547.63c-10.93,0-19.82-8.89-19.82-19.82c0-10.93,8.9-19.82,19.82-19.82
								c10.93,0,19.83,8.89,19.83,19.82C665.06,538.74,656.16,547.63,645.23,547.63z M645.23,517.71c-5.57,0-10.1,4.53-10.1,10.1
								c0,5.56,4.53,10.09,10.1,10.09c5.57,0,10.1-4.53,10.1-10.09C655.33,522.24,650.8,517.71,645.23,517.71z"/>
						</g>
					</g>
				</g>
			</g>
		</g>
	</g>
</g>
</svg>
