<?xml version="1.0" encoding="utf-8"?>
<!-- Generator: Adobe Illustrator 27.0.0, SVG Export Plug-In . SVG Version: 6.00 Build 0)  -->
<svg version="1.1" id="Livello_1" xmlns="http://www.w3.org/2000/svg" xmlns:xlink="http://www.w3.org/1999/xlink" x="0px" y="0px"
	 viewBox="0 0 1080 1080" style="enable-background:new 0 0 1080 1080;" xml:space="preserve">
<style type="text/css">
	.st0{fill-rule:evenodd;clip-rule:evenodd;fill:#FFFFFF;}
</style>
<path class="st0" d="M737.11,603.04c-2.26-0.8-4.09-3.4-5.46-6.97c-1.83-4.74-2.71-10.97-2.71-17.22c0-3.97,0.69-9.33,2.35-14.27
	c1.23-3.66,2.97-7.04,5.33-9.31c1.78-1.72,2.71-4.01,2.77-6.31c0.05-2.3-0.76-4.63-2.46-6.43c-2.34-2.48-4.33-6.23-5.74-10.79
	c-1.42-4.6-2.24-9.98-2.24-15.75c0-4.04,0.69-10.21,2.45-15.96c1.24-4.06,3-7.86,5.38-10.39c0.87-0.92,1.51-1.95,1.93-3.08
	c0.41-1.12,0.59-2.32,0.53-3.58c-0.13-2.57-1.29-4.28-1.41-4.47c-0.39-0.6-0.86-1.16-1.41-1.67c-0.12-0.11-0.23-0.23-0.35-0.33
	c-2.11-1.86-3.88-4.54-5.13-7.77c-1.26-3.28-1.99-7.13-1.99-11.32c0-3.13,0.46-6.27,1.28-9.18c0.92-3.27,2.27-6.23,3.92-8.52
	l3.45-1.53c2.05-0.9,3.23-2.93,3.02-5.16c-0.22-2.23-1.77-3.99-3.95-4.49l-205.55-46.74c-4.88-1.11-9.35-0.86-14.08,0.79
	l-177.12,61.84l0,0c-1.14,0.13-2.24,0.53-3.29,1.12l218,63.95c2.15,0.63,3.39,2.89,2.76,5.05c-0.52,1.77-2.14,2.92-3.9,2.92
	c-0.38,0-0.76-0.05-1.15-0.17l-221.92-65.1c-2.74,4.75-4.46,11.08-4.46,17.33c0,9.23,3.32,17.14,8.28,21.46
	c0.57,0.49,0.99,1.06,1.29,1.7l218.81,65.87c2.15,0.65,3.37,2.92,2.72,5.07c-0.53,1.76-2.14,2.89-3.89,2.89
	c-0.39,0-0.78-0.06-1.17-0.17l-219.04-65.94c-5.18,7.32-6.99,19.49-6.99,26.12c0,12.12,3.55,22.82,8.79,28.37
	c0.32,0.34,0.57,0.72,0.78,1.12l221.29,69.72c2.14,0.68,3.33,2.96,2.66,5.1c-0.55,1.74-2.15,2.85-3.88,2.85
	c-0.41,0-0.82-0.06-1.22-0.19l-221.31-69.73c-5.17,6.44-7.11,17.14-7.11,23.93c0,12.18,3.32,24.51,10.45,27.05l225.11,80.03l5,1.86
	c7.31,2.71,14.69,2.12,21.47-1.73l149.66-84.93c0.81-0.43,1.47-1.16,1.8-2.1C740.14,605.93,739.1,603.75,737.11,603.04z
	 M724.53,598.82c0.55,1.43,1.18,2.76,1.88,3.99l-155.03,86.5c-1.32,0.73-2.74,0.86-4.17,0.36c-1.43-0.5-2.46-1.48-3.04-2.87
	c-2.23-5.42-3.57-12.24-3.57-19.64c0-16.23,4.87-26.77,14.67-31.67l151.34-79.33c-1.02,1.9-1.87,3.93-2.57,6.01
	c-1.96,5.82-2.77,12.08-2.77,16.69C721.28,585.94,722.33,593.14,724.53,598.82z M570.53,623.43c-1.37,0.7-2.82,0.76-4.24,0.18
	c-1.42-0.58-2.42-1.63-2.91-3.09c-1.96-5.76-3.1-12.78-3.1-20.36c0-18.1,4.05-28.51,14.99-35.11l150.54-72
	c-0.66,1.54-1.23,3.13-1.73,4.75c-2.02,6.59-2.81,13.62-2.81,18.2c0,6.49,0.95,12.66,2.6,17.99c1.06,3.43,2.42,6.52,4.02,9.17
	L570.53,623.43z M569.74,554.59c-1.33,0.62-2.71,0.66-4.07,0.12c-1.36-0.55-2.33-1.53-2.86-2.91c-1.6-4.17-2.53-9.08-2.53-14.34
	c0-12.13,4.92-22.41,11.72-25.98c1.16-0.61,3.62-1.63,4.94-2.22l146.43-64.76c-0.18,0.56-0.36,1.13-0.52,1.7
	c-1.01,3.59-1.58,7.44-1.58,11.24c0,5.11,0.92,9.91,2.52,14.07c1.25,3.25,2.93,6.11,4.93,8.45L569.74,554.59z"/>
</svg>
