<?xml version="1.0" encoding="UTF-8"?>
<svg id="Object" xmlns="http://www.w3.org/2000/svg" viewBox="0 0 500 500">
  <defs>
    <style>
      .cls-1 {
        font-family: Outfit-Medium, Outfit;
        font-size: 18.3px;
        font-weight: 500;
      }

      .cls-1, .cls-2 {
        fill: #e5dfdf;
      }

      .cls-3 {
        letter-spacing: -.03em;
      }

      .cls-4 {
        fill: #f19532;
      }

      .cls-5 {
        letter-spacing: 0em;
      }
    </style>
  </defs>
  <g id="Logotype">
    <g>
      <path class="cls-4" d="M157.58,262.22l21.07-51.2c.32-.77,1.07-1.27,1.9-1.27h3.79c.81,0,1.54,.49,1.84,1.24l20.76,50.82c.95,2.32-.76,4.87-3.27,4.87h-3.25c-.95,0-1.8-.58-2.15-1.46l-17.64-44.65h3.42l-17.94,45.01c-.26,.66-.91,1.1-1.62,1.1h-3.93c-2.29,0-3.85-2.33-2.98-4.45Zm9.72-6.53v-8.13h30.17v8.13h-30.17Z"/>
      <path class="cls-4" d="M226.51,267.48c-2.17,0-4.26-.28-6.26-.85-2.01-.57-3.85-1.38-5.53-2.44-.57-.36-1.12-.75-1.64-1.16-1.62-1.28-1.78-3.67-.33-5.13l.98-.98c1.21-1.21,3.11-1.26,4.48-.23,.78,.59,1.61,1.08,2.49,1.47,1.76,.79,3.75,1.18,5.98,1.18,2,0,3.52-.3,4.55-.9,1.03-.6,1.54-1.46,1.54-2.6s-.49-2.11-1.46-2.77c-.98-.65-2.24-1.21-3.78-1.67-1.54-.46-3.17-.94-4.88-1.42-1.71-.49-3.33-1.15-4.88-1.99-1.54-.84-2.81-1.99-3.78-3.46-.98-1.46-1.46-3.36-1.46-5.69,0-2.49,.58-4.64,1.75-6.42,1.17-1.79,2.82-3.17,4.96-4.15,2.14-.98,4.7-1.46,7.68-1.46,3.14,0,5.92,.56,8.34,1.67,1.28,.59,2.46,1.34,3.52,2.25,1.53,1.31,1.66,3.63,.24,5.06l-1.02,1.02c-1.2,1.2-3.11,1.34-4.47,.31-.57-.44-1.17-.81-1.81-1.11-1.46-.7-3.14-1.06-5.04-1.06-1.79,0-3.17,.27-4.15,.81-.98,.54-1.46,1.33-1.46,2.36,0,1.09,.49,1.93,1.46,2.52,.98,.6,2.24,1.11,3.78,1.55,1.55,.43,3.17,.91,4.88,1.42,1.71,.52,3.33,1.22,4.88,2.11,1.54,.89,2.81,2.09,3.78,3.58,.98,1.49,1.46,3.43,1.46,5.81,0,3.8-1.33,6.8-3.98,9.03-2.66,2.22-6.26,3.33-10.82,3.33Z"/>
      <path class="cls-4" d="M259.36,267.48c-2.17,0-4.26-.28-6.26-.85-2.01-.57-3.85-1.38-5.53-2.44-.39-.24-.76-.5-1.13-.77-1.94-1.42-2.08-4.28-.38-5.98l.13-.13c1.37-1.37,3.53-1.57,5.1-.44,.71,.51,1.46,.95,2.26,1.3,1.76,.79,3.75,1.18,5.98,1.18,2,0,3.52-.3,4.55-.9,1.03-.6,1.54-1.46,1.54-2.6s-.49-2.11-1.46-2.77c-.98-.65-2.24-1.21-3.78-1.67-1.54-.46-3.17-.94-4.88-1.42-1.71-.49-3.33-1.15-4.88-1.99-1.54-.84-2.81-1.99-3.78-3.46-.98-1.46-1.46-3.36-1.46-5.69,0-2.49,.58-4.64,1.75-6.42,1.17-1.79,2.82-3.17,4.96-4.15,2.14-.98,4.7-1.46,7.68-1.46,3.14,0,5.92,.56,8.34,1.67,1.09,.5,2.1,1.12,3.04,1.85,1.85,1.45,1.94,4.23,.28,5.89l-.23,.23c-1.4,1.4-3.58,1.5-5.21,.37-.45-.31-.92-.59-1.41-.82-1.46-.7-3.14-1.06-5.04-1.06-1.79,0-3.17,.27-4.15,.81-.98,.54-1.46,1.33-1.46,2.36,0,1.09,.49,1.93,1.46,2.52,.98,.6,2.24,1.11,3.78,1.55,1.55,.43,3.17,.91,4.88,1.42,1.71,.52,3.33,1.22,4.88,2.11,1.54,.89,2.81,2.09,3.78,3.58,.98,1.49,1.46,3.43,1.46,5.81,0,3.8-1.33,6.8-3.99,9.03-2.66,2.22-6.26,3.33-10.81,3.33Z"/>
      <path class="cls-4" d="M297.34,267.48c-3.8,0-7.24-.91-10.33-2.72-3.09-1.82-5.54-4.27-7.36-7.36-1.82-3.09-2.72-6.53-2.72-10.33s.91-7.21,2.72-10.25c1.82-3.04,4.27-5.46,7.36-7.28,3.09-1.82,6.53-2.72,10.33-2.72s7.32,.89,10.41,2.68c3.09,1.79,5.54,4.22,7.36,7.28,1.82,3.06,2.72,6.49,2.72,10.29s-.91,7.24-2.72,10.33c-1.82,3.09-4.27,5.54-7.36,7.36-3.09,1.82-6.56,2.72-10.41,2.72Zm0-8.62c2.22,0,4.19-.5,5.9-1.5,1.71-1,3.04-2.4,3.98-4.19,.95-1.79,1.42-3.82,1.42-6.1s-.49-4.28-1.46-6.02c-.98-1.73-2.31-3.1-3.99-4.11-1.68-1-3.63-1.5-5.86-1.5s-4.11,.5-5.81,1.5c-1.71,1-3.04,2.37-3.98,4.11-.95,1.74-1.42,3.74-1.42,6.02s.47,4.31,1.42,6.1c.95,1.79,2.28,3.19,3.98,4.19,1.71,1,3.65,1.5,5.81,1.5Z"/>
      <path class="cls-2" d="M310.28,217.78v-5.49c0-1.67,1.36-3.03,3.03-3.03h41.88c2.1,0,3.8,1.7,3.8,3.8v4.73c0,1.44-1.17,2.61-2.61,2.61h-43.48c-1.45,0-2.62-1.17-2.62-2.62Zm17.97,44.17v-51.88h12.77v52.94c0,2.02-1.64,3.66-3.66,3.66h-4.39c-2.61,0-4.72-2.11-4.72-4.72Z"/>
      <path class="cls-2" d="M371.08,267.48c-3.63,0-6.87-.89-9.72-2.68-2.85-1.79-5.1-4.23-6.75-7.32-1.65-3.09-2.48-6.61-2.48-10.57s.83-7.48,2.48-10.57c1.65-3.09,3.9-5.53,6.75-7.32,2.85-1.79,6.09-2.68,9.72-2.68,2.66,0,5.05,.52,7.2,1.54,2.14,1.03,3.89,2.45,5.25,4.27,1.35,1.82,2.11,3.89,2.28,6.22v17.08c-.16,2.33-.91,4.4-2.24,6.22-1.33,1.82-3.08,3.24-5.25,4.27-2.17,1.03-4.58,1.54-7.24,1.54Zm2.52-11.22c2.66,0,4.8-.88,6.42-2.64,1.63-1.76,2.44-4,2.44-6.71,0-1.84-.37-3.47-1.1-4.88-.73-1.41-1.76-2.51-3.09-3.29-1.33-.78-2.86-1.18-4.59-1.18s-3.27,.39-4.59,1.18c-1.33,.79-2.39,1.88-3.17,3.29-.79,1.41-1.18,3.04-1.18,4.88s.38,3.39,1.14,4.8c.76,1.41,1.82,2.52,3.17,3.33,1.35,.81,2.87,1.22,4.55,1.22Zm8.38,7.44v-7.68l1.87-9.6-1.87-9.6v-6.09c0-1.98,1.61-3.59,3.59-3.59h4.45c2.3,0,4.16,1.86,4.16,4.16v33.36c0,1.11-.9,2-2,2h-7.23c-1.64,0-2.97-1.33-2.97-2.97Z"/>
      <path class="cls-2" d="M401.05,263.72l14.11-20.07,7.08,7.97-8.04,12.5c-1.02,1.59-2.78,2.55-4.67,2.55h-6.95c-1.52,0-2.4-1.71-1.53-2.95Zm24.85,.46l-7.97-12.88-2.68-1.71-13.9-20.08c-.69-1,.02-2.36,1.24-2.36h8.65c1.88,0,3.63,.98,4.62,2.58l7.27,11.81,2.6,1.63,14.69,21.44c.6,.87-.03,2.06-1.09,2.06h-8.97c-1.82,0-3.51-.94-4.47-2.49Zm-.25-14.67l-7.07-7.97,7.99-12.86c.59-.95,1.63-1.53,2.75-1.53h9.15c1.08,0,1.72,1.21,1.1,2.1l-13.93,20.26Z"/>
    </g>
    <text class="cls-1" transform="translate(156.12 286.89)"><tspan x="0" y="0">il gestionale per la tua</tspan><tspan class="cls-3" x="177.52" y="0"> </tspan><tspan class="cls-5" x="180.66" y="0">Associazione</tspan></text>
  </g>
  <g id="Logogram">
    <path class="cls-4" d="M111.33,215.72l-16.15,64.92c-1.26,5.89-6.46,10.09-12.48,10.09h-17.59c-3.69,0-6.44-3.4-5.67-7.01l16.15-64.92c1.26-5.89,6.46-10.09,12.48-10.09h17.59c3.69,0,6.44,3.4,5.67,7.01Z"/>
    <path class="cls-2" d="M156.16,212.4l-6.67,31.22c-2.09,9.76-10.71,16.74-20.7,16.74h-14.19c-1.94,0-3.39-1.79-2.99-3.69l6.67-31.22c2.09-9.76,10.71-16.74,20.7-16.74h14.19c1.94,0,3.39,1.79,2.99,3.69Z"/>
  </g>
</svg>